<?xml version="1.0" encoding="utf-8"?>
<!-- Generator: Adobe Illustrator 18.1.1, SVG Export Plug-In . SVG Version: 6.00 Build 0)  -->
<!DOCTYPE svg PUBLIC "-//W3C//DTD SVG 1.1//EN" "http://www.w3.org/Graphics/SVG/1.1/DTD/svg11.dtd">
<svg version="1.1" id="Layer_1" xmlns="http://www.w3.org/2000/svg" xmlns:xlink="http://www.w3.org/1999/xlink" x="0px" y="0px"
	 width="272px" height="153.5px" viewBox="0 0 272 153.5" enable-background="new 0 0 272 153.5" xml:space="preserve">
<g>
	<defs>
		<rect id="SVGID_1_" width="272" height="153.5"/>
	</defs>
	<clipPath id="SVGID_2_">
		<use xlink:href="#SVGID_1_"  overflow="visible"/>
	</clipPath>
	<path clip-path="url(#SVGID_2_)" fill="#9B8542" d="M258.4,140.9c0.1-1.9,0.3-3.7,0.3-5.6c0-67.7-54.9-122.6-122.6-122.6
		S13.4,67.6,13.4,135.3c0,1.9,0.2,3.7,0.3,5.6H258.4z"/>
	<path clip-path="url(#SVGID_2_)" fill="#FFFFFF" d="M191.1,140.9c0-0.9,0.1-1.8,0.1-2.7c0-32.6-24.7-59-55.2-59s-55.2,26.4-55.2,59
		c0,0.9,0.1,1.8,0.1,2.7H191.1z"/>
	<path clip-path="url(#SVGID_2_)" fill="#C8B783" d="M182.2,140.9c0-0.8,0.1-1.5,0.1-2.3c0-28.1-20.7-50.8-46.3-50.8
		c-25.6,0-46.3,22.7-46.3,50.8c0,0.8,0.1,1.5,0.1,2.3H182.2z"/>
	<path clip-path="url(#SVGID_2_)" fill="#FFFFFF" d="M69,123.4l-34.1-6l-1.2,6.5l-4.7-0.8c0.1-1.9-0.2-3.7-0.9-5.6
		c-0.7-1.8-1.8-3.2-3.1-4.2L26,108l44.3,7.8L69,123.4z"/>
	<path clip-path="url(#SVGID_2_)" fill="#FFFFFF" d="M48,82.6c-0.9-0.5-2-0.6-3.1-0.2c-1.1,0.4-2,1.1-2.6,2.2
		c-0.6,1.1-0.8,2.2-0.6,3.3c0.2,1.1,0.8,2,1.8,2.5L65,102.5c0.9,0.5,1.9,0.6,3,0.2c1.1-0.4,1.9-1.1,2.6-2.2c0.6-1.1,0.8-2.2,0.6-3.3
		c-0.2-1.1-0.8-2-1.8-2.5L48,82.6z M73.5,87.8c2.6,1.5,4.2,3.8,4.8,6.9c0.6,3.1,0.1,6.1-1.6,9.1c-1.7,3-4,5-7,6
		c-3,1-5.8,0.8-8.4-0.6L40,97c-2.6-1.5-4.2-3.8-4.8-6.9C34.5,87,35,83.9,36.7,81c1.7-3,4-5,7-6c3-1,5.8-0.8,8.4,0.7L73.5,87.8z"/>
	<path clip-path="url(#SVGID_2_)" fill="#FFFFFF" d="M73.7,54c-0.7-0.8-1.6-1.3-2.8-1.3c-1.2,0-2.2,0.3-3.2,1.1
		c-1,0.8-1.5,1.7-1.7,2.9c-0.2,1.1,0.1,2.1,0.7,3l15.5,19.1c0.7,0.8,1.6,1.3,2.7,1.3c1.2,0.1,2.2-0.3,3.2-1.1c1-0.8,1.5-1.7,1.7-2.9
		c0.2-1.1,0-2.1-0.7-3L73.7,54z M95.5,68.1c1.9,2.3,2.5,5.1,2,8.2c-0.6,3.1-2.1,5.8-4.8,7.9c-2.7,2.2-5.6,3.2-8.8,3.1
		c-3.2-0.1-5.7-1.3-7.6-3.6L61,64.5c-1.9-2.3-2.6-5.1-2-8.2c0.6-3.1,2.1-5.8,4.8-7.9c2.7-2.2,5.6-3.2,8.7-3c3.2,0.1,5.7,1.4,7.6,3.7
		L95.5,68.1z"/>
</g>
<polygon fill="#FFFFFF" points="112.7,52.5 96.8,29.3 105.2,27.4 114.3,41.9 116.3,24.9 124.7,23 120.3,50.8 124.5,69.2 116.9,70.9 
	"/>
<polygon fill="#FFFFFF" points="132,67.6 136.4,22.8 158.4,25 157.7,31.8 143.5,30.4 142.3,42.6 152.7,43.6 152,50.4 141.6,49.4 
	140.4,61.6 154.6,63 154,69.8 "/>
<path fill="#FFFFFF" d="M183.9,45.3l-10.7,14.4l5.1,2.6L183.9,45.3z M169,65.1l-6.4,8.3l-7.2-3.7l28.5-35.9l9.5,4.9l-13.1,43.9
	l-7.2-3.8l3.2-10L169,65.1z"/>
<g>
	<defs>
		<rect id="SVGID_3_" width="272" height="153.5"/>
	</defs>
	<clipPath id="SVGID_4_">
		<use xlink:href="#SVGID_3_"  overflow="visible"/>
	</clipPath>
	<path clip-path="url(#SVGID_4_)" fill="#FFFFFF" d="M218.2,74.9c2-1.7,2.1-3.6,0.2-5.9l-3-3.6l-11.1,9.2l3,3.6
		c0.8,0.9,1.7,1.5,2.9,1.7c1.1,0.2,2.1-0.1,3-0.8L218.2,74.9z M223.7,64.4c2.7,3.3,4,6.4,3.6,9.3c-0.3,2.5-1.7,4.8-4.2,6.9l-5,4.2
		c-2.5,2-5.4,2.7-8.9,1.9l-11.5,16.9l-5.3-6.5l10.1-14.4c-0.1-0.2-0.3-0.3-0.4-0.5l-2.8-3.5l-13.1,10.8l-4.9-6L215.9,55L223.7,64.4z
		"/>
	<path clip-path="url(#SVGID_4_)" fill="#FFFFFF" d="M216,126.2c-3,1-5.8,0.9-8.5-0.3c-1.8-0.8-3.4-2.1-4.6-4.2
		c-0.7-1.1-1.3-2.4-1.7-4c-0.9-2.9-1-5.5-0.3-7.8c0.5-1.9,1.6-3.6,3-5.1c1.5-1.5,3.3-2.6,5.6-3.5l2.6,6.9c-2.4,1.1-4,2.4-4.7,4
		c-0.6,1.2-0.7,2.3-0.3,3.4c0.5,1.6,1.6,2.7,3.3,3.2c0.8,0.3,1.8,0.2,3.1-0.1c1.8-0.5,3.3-2,4.5-4.4c0.8-1.8,1.9-4.6,3.4-8.3
		c1.3-3.1,2.7-5.4,4-6.9c1.5-1.7,3.4-2.8,5.5-3.5c3.9-1.2,7.3-0.6,10.3,1.8c1.8,1.5,3.1,3.6,3.9,6.3c0.8,2.6,1,5.1,0.5,7.3
		c-0.3,1.7-1.1,3.2-2.3,4.6c-1.2,1.3-2.7,2.4-4.5,3.2l-3.3-6.8c1.7-0.8,2.9-1.7,3.6-3c0.5-0.9,0.6-2,0.2-3.3
		c-0.4-1.4-1.3-2.2-2.5-2.6c-1-0.3-2.2-0.3-3.4,0.1c-2,0.6-3.7,2.2-5.1,4.8c-0.6,1-1.1,2.3-1.7,4.1c-0.7,2.1-1.3,3.5-1.6,4.2
		c-1,2.3-2.2,4.2-3.4,5.7c-0.6,0.7-1.1,1.3-1.7,1.8C218.5,125,217.2,125.8,216,126.2"/>
	<path clip-path="url(#SVGID_4_)" fill="#FFFFFF" d="M138.3,103.1c0,10.3-1.1,18.7-2.3,18.7s-2.3-8.4-2.3-18.7
		c0-10.3,1.1-18.7,2.3-18.7S138.3,92.8,138.3,103.1"/>
	<path clip-path="url(#SVGID_4_)" fill="#FFFFFF" d="M148.8,106.1c-4.7,9.4-9.6,16.7-10.8,16.3c-1.2-0.4,1.7-8.3,6.4-17.7
		c4.7-9.4,9.6-16.7,10.8-16.3C156.4,88.7,153.6,96.7,148.8,106.1"/>
	<path clip-path="url(#SVGID_4_)" fill="#FFFFFF" d="M155.9,112.7c-8.6,8.3-16.4,14.5-17.4,13.8c-1-0.7,5.2-7.9,13.8-16.2
		c8.6-8.3,16.4-14.5,17.4-13.8C170.7,97.2,164.5,104.4,155.9,112.7"/>
	<path clip-path="url(#SVGID_4_)" fill="#FFFFFF" d="M158.1,121.6c-11.5,5.9-21.3,10-22,9.1c-0.7-0.9,8-6.3,19.5-12.2
		c11.5-5.9,21.3-10,22-9.1S169.5,115.7,158.1,121.6"/>
	<path clip-path="url(#SVGID_4_)" fill="#FFFFFF" d="M160,129.6c-13.2,2.8-24.1,4.3-24.5,3.3c-0.3-1,10.1-4.1,23.2-6.9
		c13.2-2.8,24.1-4.3,24.5-3.3C183.5,123.7,173.1,126.8,160,129.6"/>
	<path clip-path="url(#SVGID_4_)" fill="#FFFFFF" d="M160.5,136.6c-13.6,0.4-24.7,0-24.8-1.1c-0.1-1,11-2.2,24.6-2.7
		c13.6-0.4,24.7,0,24.8,1.1C185.2,135,174.2,136.2,160.5,136.6"/>
	<path clip-path="url(#SVGID_4_)" fill="#FFFFFF" d="M122.2,106.1c4.7,9.4,9.6,16.7,10.8,16.3c1.2-0.4-1.7-8.3-6.4-17.7
		c-4.7-9.4-9.6-16.7-10.8-16.3C114.6,88.7,117.4,96.7,122.2,106.1"/>
	<path clip-path="url(#SVGID_4_)" fill="#FFFFFF" d="M115.1,112.7c8.6,8.3,16.4,14.5,17.4,13.8c1-0.7-5.2-7.9-13.8-16.2
		c-8.6-8.3-16.4-14.5-17.4-13.8C100.3,97.2,106.5,104.4,115.1,112.7"/>
	<path clip-path="url(#SVGID_4_)" fill="#FFFFFF" d="M112.9,121.6c11.5,5.9,21.3,10,22,9.1c0.7-0.9-8-6.3-19.5-12.2s-21.3-10-22-9.1
		S101.5,115.7,112.9,121.6"/>
	<path clip-path="url(#SVGID_4_)" fill="#FFFFFF" d="M111,129.6c13.2,2.8,24.1,4.3,24.5,3.3c0.3-1-10.1-4.1-23.2-6.9
		c-13.2-2.8-24.1-4.3-24.5-3.3C87.5,123.7,97.9,126.8,111,129.6"/>
	<path clip-path="url(#SVGID_4_)" fill="#FFFFFF" d="M110.5,136.6c13.6,0.4,24.7,0,24.8-1.1c0.1-1-11-2.2-24.6-2.7s-24.7,0-24.8,1.1
		C85.8,135,96.8,136.2,110.5,136.6"/>
	<path clip-path="url(#SVGID_4_)" fill="#FFFFFF" d="M151.3,126.8c0,8.4-6.8,15.3-15.3,15.3c-8.4,0-15.3-6.8-15.3-15.3
		c0-8.4,6.8-15.3,15.3-15.3C144.4,111.5,151.3,118.4,151.3,126.8"/>
	<path clip-path="url(#SVGID_4_)" fill="none" stroke="#C8B783" stroke-width="7.962" stroke-miterlimit="10" d="M4.6,149.5H267
		c0,0,11.3-63.2-43.2-113.2C182.2,0.9,133.7,4.1,133.7,4.1s-58-3-100,47.7C-2.7,94.2,4.6,149.5,4.6,149.5z"/>
	<path clip-path="url(#SVGID_4_)" fill="#001689" d="M137.8,116.1c-0.4,0-1.1,0-1.5,0c-10.4-8.3-13.5-18.9-13.2-33.9
		c0.2-7.9-21.1-23.7-21.6-23.4c-0.4,0.2,0.9,17.1,2.5,25.2c0.5,2.8,2,6.5,4.2,7.6c12.9,6.4,18.3,16.3,18.9,29.3
		c-1,1.4-1.7,3-1.9,4.8c-0.7,6,3.7,11.5,9.7,12.2c6,0.7,11.5-3.7,12.2-9.7C147.8,122.1,143.8,116.7,137.8,116.1"/>
	<path clip-path="url(#SVGID_4_)" fill="none" stroke="#FFFFFF" stroke-width="5.308" stroke-miterlimit="10" d="M137.8,116.1
		c-0.4,0-1.1,0-1.5,0c-10.4-8.3-13.5-18.9-13.2-33.9c0.2-7.9-21.1-23.7-21.6-23.4c-0.4,0.2,0.9,17.1,2.5,25.2c0.5,2.8,2,6.5,4.2,7.6
		c12.9,6.4,18.3,16.3,18.9,29.3c-1,1.4-1.7,3-1.9,4.8c-0.7,6,3.7,11.5,9.7,12.2c6,0.7,11.5-3.7,12.2-9.7
		C147.8,122.1,143.8,116.7,137.8,116.1z"/>
	<path clip-path="url(#SVGID_4_)" fill="#001689" d="M137.8,116.1c-0.4,0-1.1,0-1.5,0c-10.4-8.3-13.5-18.9-13.2-33.9
		c0.2-7.9-21.1-23.7-21.6-23.4c-0.4,0.2,0.9,17.1,2.5,25.2c0.5,2.8,2,6.5,4.2,7.6c12.9,6.4,18.3,16.3,18.9,29.3
		c-1,1.4-1.7,3-1.9,4.8c-0.7,6,3.7,11.5,9.7,12.2c6,0.7,11.5-3.7,12.2-9.7C147.8,122.1,143.8,116.7,137.8,116.1"/>
</g>
</svg>
