<?xml version="1.0" encoding="utf-8"?>
<!-- Generator: Adobe Illustrator 19.2.0, SVG Export Plug-In . SVG Version: 6.00 Build 0)  -->
<svg version="1.1" id="Layer_2" xmlns="http://www.w3.org/2000/svg" xmlns:xlink="http://www.w3.org/1999/xlink" x="0px" y="0px"
	 width="272px" height="294.9px" viewBox="0 0 272 294.9" style="enable-background:new 0 0 272 294.9;" xml:space="preserve">
<style type="text/css">
	.st0{fill:#A6A8AB;}
	.st1{fill-rule:evenodd;clip-rule:evenodd;fill:#0055A3;}
	.st2{fill-rule:evenodd;clip-rule:evenodd;fill:#0055A3;stroke:#0055A3;stroke-width:0.5;}
</style>
<g>
	<polygon class="st0" points="4.3,2.3 267.6,2.3 269.3,2.3 269.3,3.9 269.3,289.7 269.3,291.3 267.6,292.6 4.3,292.6 2.7,291.3 
		2.7,289.7 2.7,3.9 2.7,2.3 4.3,2.3 	"/>
	<path class="st0" d="M272,1.7v291.6v1.7h-1.7H1.7H0v-1.7V1.7V0h1.7l0,0h268.7 M268.7,3.3H3.3v288.3h265.3V3.3L268.7,3.3z"/>
	<path class="st1" d="M138.9,9.9h46.8v142.3h-27.5v101.7h85.5V152.2h-25.6V9.9h45.1v275.3H138.9V9.9L138.9,9.9z M193.6,9.9h16.7
		v142.3h-16.7V9.9L193.6,9.9z"/>
	<path class="st1" d="M9.9,9.9h46v65.7H28.4v101.1h85.5V75.6H88.3V9.9h45.9v275.3H9.9V9.9L9.9,9.9z M63.7,9.9h16.7v65.7H63.7V9.9
		L63.7,9.9z"/>
	<path class="st2" d="M82.7,165l5.5-87.5c-1.1-0.8-2.2-1.2-3.2-1.3v-1.1h14.1v1.1c-1,0.1-2.1,0.5-3.2,1.3L86.3,177h-7.2l-5.4-47.2
		l-2.6-25.4l-2.7,25.4L62.7,177h-7.4l-8.7-99.6c-1.1-0.8-2.2-1.2-3.3-1.3v-1.1h15.5v1.1c-1.8,0.1-3,0.5-3.5,1.3l4,89.5l2.7-36.8
		L69,75.1h6.6l6,53.1L82.7,165L82.7,165z"/>
	<path class="st2" d="M188.6,230.2l9.8-10.9l0.9,0.8c-1,2.6-1.5,7-1.5,13.3c0,6.4,0.2,10.6,0.7,12.3c0.5,1.8,1.6,2.6,3.3,2.6
		c3.3,0,4.9-4.9,4.9-14.6c0-5.5-0.5-10.1-1.5-13.9c-1-3.8-2.9-8.1-5.8-12.9c-3.1-5.3-5.2-9.2-6.4-11.6c-1.1-2.4-2.2-5.7-3.1-9.8
		c-0.9-4.1-1.4-8.3-1.4-12.5c0-14.5,4.4-21.7,13.2-21.7c9,0,13.4,8.1,13.4,24.2v4.1l-9.9,7.3l-0.7-0.7c1-3.3,1.5-6.8,1.5-10.7
		c0-5.7-0.2-10-0.7-12.9c-0.4-3-1.6-4.4-3.4-4.4c-2.9,0-4.3,4.3-4.3,12.9c0,7.6,0.5,13,1.6,16.3c1.1,3.3,3.3,7.7,6.6,13.2
		c4.3,7.1,7,12.8,8.2,17.2c1.1,4.4,1.7,9.2,1.7,14.7c0,15.2-4.7,22.7-14.2,22.7c-8.7,0-13.1-6.7-13.1-20.2V230.2L188.6,230.2z"/>
	<rect x="50.5" y="9.8" class="st1" width="8.8" height="65.1"/>
	<rect x="84.5" y="9.9" class="st1" width="8.8" height="65.1"/>
	<rect x="180.2" y="9.9" class="st1" width="8.8" height="142.3"/>
	<rect x="214.7" y="9.9" class="st1" width="8.8" height="142.3"/>
</g>
</svg>
