<?xml version="1.0" encoding="utf-8"?>
<!-- Generator: Adobe Illustrator 18.1.1, SVG Export Plug-In . SVG Version: 6.00 Build 0)  -->
<!DOCTYPE svg PUBLIC "-//W3C//DTD SVG 1.1//EN" "http://www.w3.org/Graphics/SVG/1.1/DTD/svg11.dtd">
<svg version="1.1" id="Layer_1" xmlns="http://www.w3.org/2000/svg" xmlns:xlink="http://www.w3.org/1999/xlink" x="0px" y="0px"
	 width="118.1px" height="118.1px" viewBox="0 0 118.1 118.1" enable-background="new 0 0 118.1 118.1" xml:space="preserve">
<g>
	<defs>
		<rect id="SVGID_1_" y="0" width="118.1" height="118.1"/>
	</defs>
	<clipPath id="SVGID_2_">
		<use xlink:href="#SVGID_1_"  overflow="visible"/>
	</clipPath>
	<g clip-path="url(#SVGID_2_)">
		<defs>
			<rect id="SVGID_3_" y="0" width="118.1" height="118.1"/>
		</defs>
		<clipPath id="SVGID_4_">
			<use xlink:href="#SVGID_3_"  overflow="visible"/>
		</clipPath>
		<g opacity="0.75" clip-path="url(#SVGID_4_)">
			<g>
				<defs>
					<rect id="SVGID_5_" x="-17" y="-13" width="152.1" height="132.1"/>
				</defs>
				<clipPath id="SVGID_6_">
					<use xlink:href="#SVGID_5_"  overflow="visible"/>
				</clipPath>
				<path clip-path="url(#SVGID_6_)" fill="#FFFFFF" d="M3.2,99.3c-4.3,4.3-4.3,11.3,0,15.6c2.2,2.2,5,3.2,7.8,3.2
					c2.8,0,5.7-1.1,7.9-3.2l36.3-36.3L39.6,62.9L3.2,99.3z"/>
				<polygon clip-path="url(#SVGID_6_)" fill="#FFFFFF" points="94,31.9 109.8,23.7 118.1,7.7 110.4,0 94.4,8.3 86.2,24.1 67,43.4 
					74.8,51.2 				"/>
				<path clip-path="url(#SVGID_6_)" fill="#FFFFFF" d="M97.5,73.9L96,73.8c-2.7,0-5.3,0.5-7.7,1.4L42.9,29.8c0.9-2.4,1.4-5,1.4-7.7
					l-0.1-1.5C43.4,9.1,34,0,22.3,0c-3.4,0-6.6,0.8-9.5,2.2l14.7,14.7c0.8,0.8,1.3,1.7,1.7,2.6c1,2.6,0.5,5.7-1.7,7.8
					c-1.4,1.4-3.3,2.2-5.2,2.2c-0.9,0-1.8-0.2-2.6-0.5c-1-0.4-1.9-0.9-2.7-1.7L2.3,12.6c-1.4,2.9-2.2,6.1-2.2,9.5
					c0,11.7,9.1,21.2,20.6,22l1.5,0.1c2.7,0,5.3-0.6,7.6-1.4l45.4,45.4c-0.9,2.4-1.4,4.9-1.4,7.6l0.1,1.5
					c0.8,11.5,10.3,20.6,22,20.6c3.4,0,6.6-0.8,9.5-2.2l-14.7-14.7c-0.8-0.8-1.3-1.7-1.7-2.6c-0.9-2.6-0.4-5.7,1.7-7.8
					c1.4-1.4,3.3-2.2,5.2-2.2c0.9,0,1.7,0.2,2.6,0.5c0.9,0.4,1.9,0.9,2.6,1.7l14.7,14.7c1.4-2.9,2.2-6.1,2.2-9.5
					C118.1,84.2,109,74.7,97.5,73.9"/>
			</g>
		</g>
	</g>
</g>
</svg>
