<?xml version="1.0" encoding="utf-8"?>
<!-- Generator: Adobe Illustrator 18.1.1, SVG Export Plug-In . SVG Version: 6.00 Build 0)  -->
<!DOCTYPE svg PUBLIC "-//W3C//DTD SVG 1.1//EN" "http://www.w3.org/Graphics/SVG/1.1/DTD/svg11.dtd">
<svg version="1.1" id="Layer_1" xmlns="http://www.w3.org/2000/svg" xmlns:xlink="http://www.w3.org/1999/xlink" x="0px" y="0px"
	 width="129.9px" height="129.9px" viewBox="0 0 129.9 129.9" enable-background="new 0 0 129.9 129.9" xml:space="preserve">
<g>
	<defs>
		<rect id="SVGID_1_" x="0" width="129.9" height="129.9"/>
	</defs>
	<clipPath id="SVGID_2_">
		<use xlink:href="#SVGID_1_"  overflow="visible"/>
	</clipPath>
	<g clip-path="url(#SVGID_2_)">
		<defs>
			<rect id="SVGID_3_" x="0" width="129.9" height="129.9"/>
		</defs>
		<clipPath id="SVGID_4_">
			<use xlink:href="#SVGID_3_"  overflow="visible"/>
		</clipPath>
		<g opacity="0.75" clip-path="url(#SVGID_4_)">
			<g>
				<defs>
					<rect id="SVGID_5_" x="-17" y="-13" width="163.9" height="143.9"/>
				</defs>
				<clipPath id="SVGID_6_">
					<use xlink:href="#SVGID_5_"  overflow="visible"/>
				</clipPath>
				<path clip-path="url(#SVGID_6_)" fill="#FFFFFF" d="M68.6,11.9l1.2-2l8.5-8.5C57.6-2.9,35.1,2.9,19,19
					c-22.5,22.5-25,57.4-7.6,82.7l-9.1,9.1l29.2,4.2l-4.1-29.2l-7.4,7.4C7,72.7,9.5,45.2,27.4,27.4C38.6,16.1,53.8,10.9,68.6,11.9"
					/>
				<path clip-path="url(#SVGID_6_)" fill="#FFFFFF" d="M123.4,14.8l-29.2-4.2l4.2,29.2l8.1-8.1c16.7,20.8,15.4,51.4-3.9,70.7
					c-13,13-31,17.8-47.7,14.6l-9.7,9.7c22.4,7.1,48,1.8,65.8-15.9c24-24,25.3-62,4-87.5L123.4,14.8z"/>
				<path clip-path="url(#SVGID_6_)" fill="#FFFFFF" d="M43.9,63.4h45c0.6,0,1-0.5,1-1c0-0.3-0.2-0.6-0.4-0.8L65.9,29.1
					c-0.2-0.3-0.6-0.4-0.9-0.4c-0.3,0-0.7,0.2-0.8,0.5L43,61.8c-0.2,0.3-0.2,0.7,0,1.1C43.2,63.2,43.5,63.4,43.9,63.4 M89.8,70
					c0.2,0.3,0.2,0.7,0,1l-21.2,32.7c-0.2,0.3-0.5,0.5-0.8,0.5h0c-0.3,0-0.6-0.2-0.8-0.4L43.1,71.1c-0.2-0.3-0.3-0.7-0.1-1.1
					c0.2-0.3,0.5-0.6,0.9-0.6h45C89.3,69.4,89.6,69.6,89.8,70"/>
			</g>
		</g>
	</g>
</g>
</svg>
