<?xml version="1.0" encoding="utf-8"?>
<!-- Generator: Adobe Illustrator 18.1.1, SVG Export Plug-In . SVG Version: 6.00 Build 0)  -->
<!DOCTYPE svg PUBLIC "-//W3C//DTD SVG 1.1//EN" "http://www.w3.org/Graphics/SVG/1.1/DTD/svg11.dtd">
<svg version="1.1" id="Layer_1" xmlns="http://www.w3.org/2000/svg" xmlns:xlink="http://www.w3.org/1999/xlink" x="0px" y="0px"
	 width="38.3px" height="38.3px" viewBox="0 0 38.3 38.3" enable-background="new 0 0 38.3 38.3" xml:space="preserve">
<rect x="5.5" y="3.2" fill="#FFFFFF" width="28.9" height="31.8"/>
<g>
	<defs>
		<rect id="SVGID_1_" x="0" y="0" width="38.3" height="38.3"/>
	</defs>
	<clipPath id="SVGID_2_">
		<use xlink:href="#SVGID_1_"  overflow="visible"/>
	</clipPath>
	<path clip-path="url(#SVGID_2_)" fill="#001689" d="M20.6,17.3L20.6,17.3C20.6,17.3,20.5,17.3,20.6,17.3L20.6,17.3z M32.1,31.7
		h-5.6v-9c0-2.3-0.8-3.8-2.8-3.8c-1.5,0-2.5,1-2.9,2c-0.1,0.4-0.2,0.9-0.2,1.4v9.4H15c0,0,0.1-15.3,0-16.9h5.6v2.4
		c0.7-1.1,2.1-2.8,5-2.8c3.7,0,6.5,2.4,6.5,7.6V31.7z M12.2,9.7c0,1.6-1.2,2.9-3.2,2.9h0c-1.9,0-3.1-1.3-3.1-2.9
		c0-1.7,1.3-2.9,3.2-2.9C11,6.8,12.2,8,12.2,9.7 M6.3,18.3c0-3.4,2.8-3.4,2.8-3.4h2.8v16.9H6.3V18.3z M38.3,32V6.3
		C38.3,2.8,35.5,0,32,0H6.3C2.8,0,0,2.8,0,6.3V32c0,3.5,2.8,6.3,6.3,6.3H32C35.5,38.3,38.3,35.5,38.3,32"/>
</g>
</svg>
