<?xml version="1.0" encoding="utf-8"?>
<!-- Generator: Adobe Illustrator 18.1.1, SVG Export Plug-In . SVG Version: 6.00 Build 0)  -->
<!DOCTYPE svg PUBLIC "-//W3C//DTD SVG 1.1//EN" "http://www.w3.org/Graphics/SVG/1.1/DTD/svg11.dtd">
<svg version="1.1" id="Layer_1" xmlns="http://www.w3.org/2000/svg" xmlns:xlink="http://www.w3.org/1999/xlink" x="0px" y="0px"
	 width="124.8px" height="113.4px" viewBox="0 0 124.8 113.4" enable-background="new 0 0 124.8 113.4" xml:space="preserve">
<g>
	<defs>
		<rect id="SVGID_1_" y="0" width="124.8" height="113.4"/>
	</defs>
	<clipPath id="SVGID_2_">
		<use xlink:href="#SVGID_1_"  overflow="visible"/>
	</clipPath>
	<g clip-path="url(#SVGID_2_)">
		<defs>
			<rect id="SVGID_3_" y="0" width="124.8" height="113.4"/>
		</defs>
		<clipPath id="SVGID_4_">
			<use xlink:href="#SVGID_3_"  overflow="visible"/>
		</clipPath>
		<g opacity="0.35" clip-path="url(#SVGID_4_)">
			<g>
				<defs>
					<rect id="SVGID_5_" x="-17" y="-13" width="158.8" height="127.4"/>
				</defs>
				<clipPath id="SVGID_6_">
					<use xlink:href="#SVGID_5_"  overflow="visible"/>
				</clipPath>
				<path clip-path="url(#SVGID_6_)" fill="#414142" d="M80.3,104H9.4V9.4h70.9v16.1L89.8,15V9.6c0-5.3-4.3-9.6-9.6-9.6H9.6
					C4.3,0,0,4.3,0,9.6v94.2c0,5.3,4.3,9.6,9.6,9.6h70.6c5.3,0,9.6-4.3,9.6-9.6v-31l-9.4,10.5V104z"/>
				<path clip-path="url(#SVGID_6_)" fill="#414142" d="M72.3,26.8c0-2.6-2.1-4.7-4.7-4.7H22.1c-2.6,0-4.7,2.1-4.7,4.7
					c0,2.6,2.1,4.7,4.7,4.7h45.4C70.2,31.5,72.3,29.4,72.3,26.8"/>
				<path clip-path="url(#SVGID_6_)" fill="#414142" d="M65.8,41.9H22.1c-2.6,0-4.7,2.1-4.7,4.7c0,2.6,2.1,4.7,4.7,4.7h35.2
					L65.8,41.9z"/>
				<path clip-path="url(#SVGID_6_)" fill="#414142" d="M48.1,61.4h-26c-2.6,0-4.7,2.1-4.7,4.7c0,2.6,2.1,4.7,4.7,4.7h20.6
					L48.1,61.4z"/>
				<path clip-path="url(#SVGID_6_)" fill="#414142" d="M17.4,86c0,2.6,2.1,4.7,4.7,4.7h15.1c0.1-0.7,0.2-1,0.3-1.6l2.3-7.9H22.1
					C19.5,81.2,17.4,83.4,17.4,86"/>
				<path clip-path="url(#SVGID_6_)" fill="#414142" d="M93.1,32.4l1.1,1c0.6,0.6,0.7,1.5,0.1,2.2L94,35.8l-1.5,1.7l-0.1,0.1
					c-0.3,0.3-0.6,0.5-1,0.5c-0.4,0-0.8-0.1-1.1-0.4l-1.1-1c-0.3-0.3-0.5-0.7-0.5-1.1c0-0.4,0.1-0.8,0.4-1.1l1.9-2.1
					C91.5,31.9,92.4,31.8,93.1,32.4 M86.8,43.9L65.1,68c-0.3,0.3-0.6,0.5-1.1,0.5c-0.4,0-0.8-0.1-1.1-0.4l-1.1-1
					c-0.6-0.6-0.7-1.5-0.1-2.2l21.7-24.1c0.3-0.3,0.6-0.5,1.1-0.5c0.4,0,0.8,0.1,1.1,0.4l1.1,1C87.3,42.3,87.3,43.2,86.8,43.9
					 M88.4,27.2L55.4,64l-2.6,2.8L71,83.2l2.6-2.9l33-36.8l3-3.3L91.3,23.9L88.4,27.2z"/>
				<polygon clip-path="url(#SVGID_6_)" fill="#414142" points="94.4,20.4 93.1,22 111.2,38.2 115.7,33.3 97.6,17 				"/>
				<path clip-path="url(#SVGID_6_)" fill="#414142" d="M117,24.7l-11-9.9l3.2-3.5l11,9.9L117,24.7z M124.8,20.9
					c-0.1-1.4-0.7-2.7-1.7-3.6L112.7,8c-1-1-2.4-1.4-3.8-1.4c-1.4,0.1-2.7,0.7-3.6,1.8l-6.1,6.8l18.2,16.3l6.1-6.8
					C124.4,23.6,124.8,22.3,124.8,20.9"/>
				<path clip-path="url(#SVGID_6_)" fill="#414142" d="M52.3,75.1l10.5,9.5l-8.2,3.4l-4.8-4.3L52.3,75.1z M45.2,93.7
					c0.7,0.7,1.8,0.9,2.7,0.5l20.9-8.5L50.6,69.3L44.4,91C44.1,91.9,44.4,93,45.2,93.7"/>
			</g>
		</g>
	</g>
</g>
</svg>
