<?xml version="1.0" encoding="utf-8"?>
<!-- Generator: Adobe Illustrator 18.1.1, SVG Export Plug-In . SVG Version: 6.00 Build 0)  -->
<!DOCTYPE svg PUBLIC "-//W3C//DTD SVG 1.1//EN" "http://www.w3.org/Graphics/SVG/1.1/DTD/svg11.dtd">
<svg version="1.1" id="Layer_1" xmlns="http://www.w3.org/2000/svg" xmlns:xlink="http://www.w3.org/1999/xlink" x="0px" y="0px"
	 width="104.3px" height="140.2px" viewBox="0 0 104.3 140.2" enable-background="new 0 0 104.3 140.2" xml:space="preserve">
<g>
	<defs>
		<rect id="SVGID_1_" x="0" y="0" width="104.3" height="140.2"/>
	</defs>
	<clipPath id="SVGID_2_">
		<use xlink:href="#SVGID_1_"  overflow="visible"/>
	</clipPath>
	<g clip-path="url(#SVGID_2_)">
		<defs>
			<rect id="SVGID_3_" x="0" y="0" width="104.3" height="140.2"/>
		</defs>
		<clipPath id="SVGID_4_">
			<use xlink:href="#SVGID_3_"  overflow="visible"/>
		</clipPath>
		<g opacity="0.75" clip-path="url(#SVGID_4_)">
			<g>
				<defs>
					<rect id="SVGID_5_" x="-34.8" y="-33.6" width="174.9" height="174.8"/>
				</defs>
				<clipPath id="SVGID_6_">
					<use xlink:href="#SVGID_5_"  overflow="visible"/>
				</clipPath>
				<path clip-path="url(#SVGID_6_)" fill="#FFFFFF" d="M78.9,76.1c-3.8,4.1-8.2,7.8-11.7,9.6c0,0-5.7,2.7-8.2-4.9
					c-1.6-4.9,4.9-8.2,4.9-8.2s3-1.5,6.4-5c3.5-3.4,5-6.4,5-6.4s3.3-6.6,8.2-4.9c7.6,2.5,4.9,8.2,4.9,8.2
					C86.7,67.9,82.9,72.2,78.9,76.1 M38.1,85.6c-3.5-1.8-7.9-5.5-11.7-9.6c-4.1-3.8-7.8-8.2-9.6-11.7c0,0-2.7-5.7,4.9-8.2
					c4.9-1.6,8.2,4.9,8.2,4.9s1.5,3,5,6.4c3.4,3.5,6.4,5,6.4,5s6.6,3.3,4.9,8.2C43.8,88.3,38.1,85.6,38.1,85.6 M62.1,40.4
					c5.2,5.2,5.2,13.7,0,18.9c-5.2,5.2-13.7,5.2-18.9,0c-5.2-5.2-5.2-13.7,0-18.9C48.4,35.1,56.9,35.1,62.1,40.4 M83.5,43.5
					c-4.9,1.6-8.2-4.9-8.2-4.9s-1.5-3-5-6.4c-3.4-3.5-6.4-5-6.4-5s-6.6-3.3-4.9-8.2c2.5-7.6,8.2-4.9,8.2-4.9
					c3.5,1.8,7.9,5.5,11.7,9.6c4.1,3.8,7.8,8.2,9.6,11.7C88.4,35.3,91.1,41,83.5,43.5 M34.9,32.2c-3.5,3.4-5,6.4-5,6.4
					s-3.3,6.6-8.2,4.9c-7.6-2.5-4.9-8.2-4.9-8.2c1.8-3.5,5.5-7.9,9.6-11.7c3.8-4.1,8.2-7.8,11.7-9.6c0,0,5.7-2.7,8.2,4.9
					c1.6,4.9-4.9,8.2-4.9,8.2S38.4,28.7,34.9,32.2 M87.9,85.1c19.5-19.5,19.5-51,0-70.5s-51-19.5-70.5,0c-19.5,19.5-19.5,51,0,70.5
					C36.8,104.5,68.4,104.5,87.9,85.1"/>
				<path clip-path="url(#SVGID_6_)" fill="#FFFFFF" d="M0,79.9c0,0,7,9.3,11.6,12.8v47.5H0V79.9z"/>
				<path clip-path="url(#SVGID_6_)" fill="#FFFFFF" d="M104.3,79.9c0,0-7,9.3-11.6,12.8v47.5h11.6V79.9z"/>
			</g>
		</g>
	</g>
</g>
</svg>
