<?xml version="1.0" encoding="utf-8"?>
<!-- Generator: Adobe Illustrator 18.1.1, SVG Export Plug-In . SVG Version: 6.00 Build 0)  -->
<!DOCTYPE svg PUBLIC "-//W3C//DTD SVG 1.1//EN" "http://www.w3.org/Graphics/SVG/1.1/DTD/svg11.dtd">
<svg version="1.1" id="Layer_1" xmlns="http://www.w3.org/2000/svg" xmlns:xlink="http://www.w3.org/1999/xlink" x="0px" y="0px"
	 width="119.4px" height="119.7px" viewBox="0 0 119.4 119.7" enable-background="new 0 0 119.4 119.7" xml:space="preserve">
<g>
	<defs>
		<rect id="SVGID_1_" y="0" width="119.4" height="118.7"/>
	</defs>
	<clipPath id="SVGID_2_">
		<use xlink:href="#SVGID_1_"  overflow="visible"/>
	</clipPath>
	<g clip-path="url(#SVGID_2_)">
		<defs>
			<rect id="SVGID_3_" x="0" y="0" width="119.4" height="118.7"/>
		</defs>
		<clipPath id="SVGID_4_">
			<use xlink:href="#SVGID_3_"  overflow="visible"/>
		</clipPath>
		<g opacity="0.35" clip-path="url(#SVGID_4_)">
			<g>
				<defs>
					<rect id="SVGID_5_" x="-9" y="-7" width="137.4" height="126.7"/>
				</defs>
				<clipPath id="SVGID_6_">
					<use xlink:href="#SVGID_5_"  overflow="visible"/>
				</clipPath>
				<path clip-path="url(#SVGID_6_)" fill="#414142" d="M74.4,108.6c-0.4,0.5-1,1.2-1.8,2.1c-0.4,0.4-0.9,0.9-1.5,1.3
					c-0.5,0.4-1.2,0.9-1.8,1.2c-0.7,0.4-1.4,0.7-2.2,0.9c-0.8,0.2-1.5,0.4-2.3,0.5l-1.1,0.1l-1.1-0.1c-0.7,0-1.4-0.2-2.1-0.3
					c-0.7-0.1-1.2-0.4-1.8-0.5c-0.6-0.2-1.1-0.4-1.6-0.6c-1-0.4-1.6-0.8-2.2-1.1c-0.5-0.3-0.8-0.4-0.8-0.4s0.3,0.1,0.9,0.1
					c0.6,0.1,1.4,0.3,2.4,0.3c0.5,0,1,0.1,1.5,0c0.5,0,1.1,0,1.7-0.1c0.6-0.1,1.1-0.1,1.7-0.3l0.8-0.3l0.8-0.4c2-1,3.1-2.7,3.7-4.1
					c0.3-0.7,0.5-1.4,0.7-1.9c0.2-0.5,0.3-0.8,0.3-0.8l6.5,3.6C74.9,107.9,74.7,108.2,74.4,108.6 M14.5,49.4
					c-0.2,0.1-0.4,0.2-0.7,0.3c-0.6,0.2-1.2,0.5-2,0.8c-0.3,0.2-0.7,0.3-1.1,0.6c-0.4,0.2-0.7,0.5-1.1,0.8c-0.4,0.3-0.6,0.7-1,1
					c-0.2,0.4-0.5,0.9-0.7,1.4c-0.2,0.5-0.3,1.1-0.5,1.6c-0.1,0.6-0.1,1.2-0.2,1.7c0,1.2,0,2.3,0.2,3.3c0.1,1,0.3,1.8,0.4,2.4
					c0.1,0.6,0.2,0.9,0.2,0.9S8,63.8,7.7,63.3c-0.3-0.5-0.8-1.2-1.2-2.1c-0.5-0.9-1-2-1.4-3.3c-0.2-0.7-0.4-1.3-0.5-2
					c-0.1-0.7-0.2-1.5-0.2-2.3c0-0.8,0.1-1.6,0.3-2.4c0.2-0.8,0.5-1.6,0.9-2.3c0.3-0.7,0.8-1.4,1.2-1.9c0.4-0.6,0.9-1.1,1.3-1.5
					c0.9-0.8,1.6-1.5,2-1.8c0.2-0.2,0.3-0.3,0.5-0.4c0.1-0.1,0.2-0.1,0.2-0.1l4,6.2C14.8,49.3,14.7,49.3,14.5,49.4 M75.6,95.8
					c-11.6-9.3-14.9-4.8-20.2,0.5c-3.7,3.7-13-4-21.1-12.1c-8-8-15.7-17.4-12.1-21.1c5.3-5.3,9.9-8.5,0.5-20.2
					c-9.3-11.6-15.6-2.7-20.7,2.4c-5.9,5.9-0.3,27.9,21.4,49.6c21.7,21.7,43.7,27.3,49.6,21.4C78.3,111.4,87.3,105.2,75.6,95.8
					 M99.9,34.8c-3.2,0-5.7-2.6-5.7-5.7c0-3.2,2.6-5.7,5.7-5.7c3.2,0,5.7,2.6,5.7,5.7C105.7,32.2,103.1,34.8,99.9,34.8 M82.7,34.8
					c-3.2,0-5.7-2.6-5.7-5.7c0-3.2,2.6-5.7,5.7-5.7c3.2,0,5.7,2.6,5.7,5.7C88.5,32.2,85.9,34.8,82.7,34.8 M65.6,34.8
					c-3.2,0-5.7-2.6-5.7-5.7c0-3.2,2.6-5.7,5.7-5.7s5.7,2.6,5.7,5.7C71.3,32.2,68.7,34.8,65.6,34.8 M82.7,0C62.5,0,46.1,13,46.1,29
					c0,9.6,5.9,18,14.8,23.3c-0.9,4.8-3.7,10.5-7.6,14.4c9.6-0.7,18-3.5,23.5-9.1c1.9,0.2,3.9,0.4,5.9,0.4c20.3,0,36.7-13,36.7-29
					C119.4,13,103,0,82.7,0"/>
			</g>
		</g>
	</g>
</g>
</svg>
