<?xml version="1.0" encoding="utf-8"?>
<!-- Generator: Adobe Illustrator 18.1.1, SVG Export Plug-In . SVG Version: 6.00 Build 0)  -->
<!DOCTYPE svg PUBLIC "-//W3C//DTD SVG 1.1//EN" "http://www.w3.org/Graphics/SVG/1.1/DTD/svg11.dtd">
<svg version="1.1" id="Layer_1" xmlns="http://www.w3.org/2000/svg" xmlns:xlink="http://www.w3.org/1999/xlink" x="0px" y="0px"
	 width="38.1px" height="38.1px" viewBox="0 0 38.1 38.1" enable-background="new 0 0 38.1 38.1" xml:space="preserve">
<rect x="10.7" y="3.1" fill="#FFFFFF" width="22.3" height="35"/>
<g>
	<defs>
		<rect id="SVGID_1_" x="0" y="0" width="38.1" height="38.1"/>
	</defs>
	<clipPath id="SVGID_2_">
		<use xlink:href="#SVGID_1_"  overflow="visible"/>
	</clipPath>
	<path clip-path="url(#SVGID_2_)" fill="#001689" d="M23.3,38.1h-4.2C19.1,38.1,23,38.2,23.3,38.1 M38.1,31.9V6.3
		c0-3.4-2.8-6.3-6.3-6.3H6.3C2.8,0,0,2.8,0,6.3v25.6c0,3.5,2.8,6.3,6.3,6.3h12.8V26.4c0-2.6-2.4-2.6-2.4-2.6h-2.4v-6h4.8v-3
		c0-4.3,3.2-7.8,7.2-7.8h4.8V13h-4.8c-0.6,0-1.2,0.8-1.2,1.8v3.1h6v6h-6v11.9c0,1.7-1.1,2.2-1.8,2.4h8.6
		C35.3,38.1,38.1,35.3,38.1,31.9"/>
</g>
</svg>
