<?xml version="1.0" encoding="utf-8"?>
<!-- Generator: Adobe Illustrator 18.1.1, SVG Export Plug-In . SVG Version: 6.00 Build 0)  -->
<!DOCTYPE svg PUBLIC "-//W3C//DTD SVG 1.1//EN" "http://www.w3.org/Graphics/SVG/1.1/DTD/svg11.dtd">
<svg version="1.1" id="Layer_1" xmlns="http://www.w3.org/2000/svg" xmlns:xlink="http://www.w3.org/1999/xlink" x="0px" y="0px"
	 width="141.6px" height="140.2px" viewBox="0 0 141.6 140.2" enable-background="new 0 0 141.6 140.2" xml:space="preserve">
<g>
	<defs>
		<rect id="SVGID_1_" x="0" y="0" width="141.6" height="140.2"/>
	</defs>
	<clipPath id="SVGID_2_">
		<use xlink:href="#SVGID_1_"  overflow="visible"/>
	</clipPath>
	<g clip-path="url(#SVGID_2_)">
		<defs>
			<rect id="SVGID_3_" x="0" y="0" width="141.6" height="140.2"/>
		</defs>
		<clipPath id="SVGID_4_">
			<use xlink:href="#SVGID_3_"  overflow="visible"/>
		</clipPath>
		<g opacity="0.75" clip-path="url(#SVGID_4_)">
			<g>
				<defs>
					<rect id="SVGID_5_" x="-17" y="-13" width="175.6" height="154.2"/>
				</defs>
				<clipPath id="SVGID_6_">
					<use xlink:href="#SVGID_5_"  overflow="visible"/>
				</clipPath>
				<path clip-path="url(#SVGID_6_)" fill="#FFFFFF" d="M42.2,26.6c8.3,0,15,6.7,15,15s-6.7,15-15,15s-15-6.7-15-15
					S33.9,26.6,42.2,26.6 M9.3,51.2c0.7,2.6,1.8,5,3.1,7.3l-3.7,4.7c-1.2,1.5-1.1,3.7,0.3,5.1l6.4,6.4c1.4,1.4,3.6,1.5,5.1,0.3
					l4.7-3.7c2.4,1.4,5,2.5,7.6,3.2l0.7,6c0.2,1.9,1.9,3.4,3.8,3.4h9.1c1.9,0,3.6-1.5,3.8-3.4l0.7-5.8c2.9-0.7,5.6-1.9,8.2-3.3
					l4.5,3.6c1.5,1.2,3.7,1.1,5.1-0.3l6.4-6.4c1.4-1.4,1.5-3.6,0.3-5.1l-3.5-4.5c1.5-2.5,2.6-5.2,3.4-8l5.4-0.6
					c1.9-0.2,3.4-1.9,3.4-3.8v-9.1c0-1.9-1.5-3.6-3.4-3.8l-5.3-0.6c-0.7-2.8-1.8-5.4-3.2-7.9l3.3-4.1c1.2-1.5,1.1-3.7-0.3-5.1
					l-6.4-6.4c-1.4-1.4-3.6-1.5-5.1-0.3l-4,3.2c-2.6-1.5-5.4-2.7-8.3-3.5l-0.6-5.2C50.3,1.5,48.6,0,46.7,0h-9.1
					c-1.9,0-3.6,1.5-3.8,3.4l-0.6,5.2c-3,0.8-5.9,2-8.6,3.6l-4.2-3.3c-1.5-1.2-3.7-1.1-5.1,0.3L9,15.6c-1.4,1.4-1.5,3.6-0.3,5.1
					l3.5,4.4c-1.4,2.5-2.5,5.2-3.2,8l-5.6,0.6C1.5,34,0,35.7,0,37.6v9.1c0,1.9,1.5,3.6,3.4,3.8L9.3,51.2z"/>
				<path clip-path="url(#SVGID_6_)" fill="#FFFFFF" d="M108.3,89.5c-6.7,0.6-12.7-4.5-13.3-11.2c-0.6-6.7,4.5-12.7,11.2-13.3
					c6.7-0.6,12.7,4.5,13.3,11.2C120.1,83,115.1,88.9,108.3,89.5 M131.8,53.4l-4.8-4c-1.5-1.2-3.6-1.2-5,0.1l-2.6,2.5
					c-2.2-1.1-4.6-1.8-7-2.3l-0.7-3.6c-0.4-1.9-2.1-3.2-4-3l-6.2,0.5c-1.9,0.2-3.4,1.7-3.5,3.7l-0.1,3.7C95.3,51.8,93,53,91,54.5
					l-3.2-2.1c-1.6-1.1-3.8-0.8-5,0.7l-4,4.8c-1.2,1.5-1.2,3.6,0.1,5l2.8,2.9c-1,2.2-1.6,4.4-2,6.7l-4,0.8c-1.9,0.4-3.2,2.1-3,4
					l0.5,6.2c0.2,1.9,1.7,3.4,3.7,3.5l4.3,0.1c0.8,2,1.8,4,3,5.8l-2.4,3.6c-1.1,1.6-0.8,3.8,0.7,5l4.8,4c1.5,1.2,3.6,1.2,5-0.1
					l3.1-2.9c2.1,1,4.2,1.7,6.4,2.1l0.9,4.3c0.4,1.9,2.1,3.2,4,3l6.2-0.5c1.9-0.2,3.4-1.7,3.5-3.7l0.1-4.2c2.3-0.8,4.4-1.9,6.4-3.3
					l3.4,2.3c1.6,1.1,3.8,0.8,5-0.7l4-4.8c1.2-1.5,1.2-3.6-0.1-5l-2.8-2.9c1-2.2,1.8-4.4,2.2-6.8l3.8-0.8c1.9-0.4,3.2-2.1,3-4
					l-0.5-6.2c-0.2-1.9-1.7-3.4-3.7-3.5l-3.8-0.1c-0.8-2.2-1.9-4.3-3.2-6.3l2.1-3.1C133.6,56.8,133.3,54.7,131.8,53.4"/>
				<path clip-path="url(#SVGID_6_)" fill="#FFFFFF" d="M56,102c5.5,0.1,9.9,4.6,9.9,10.1c-0.1,5.5-4.6,9.9-10.1,9.9
					c-5.5-0.1-9.9-4.6-9.9-10.1C45.9,106.3,50.4,101.9,56,102 M31.1,106.3c-1.9,0.2-3.4,1.8-3.4,3.7l0,3.8c0,1.9,1.4,3.6,3.3,3.8
					l2.8,0.4c0.5,1.7,1.1,3.4,2,4.9l-1.8,2.2c-1.2,1.5-1.1,3.7,0.2,5l2.7,2.8c1.4,1.4,3.5,1.5,5,0.3l2.3-1.7c1.6,0.9,3.3,1.7,5,2.2
					l0.3,2.9c0.2,1.9,1.8,3.4,3.7,3.4l3.8,0c1.9,0,3.6-1.4,3.8-3.3l0.3-2.8c1.9-0.5,3.7-1.2,5.5-2.1l2.1,1.7c1.5,1.2,3.7,1.1,5-0.2
					l2.8-2.7c1.4-1.4,1.5-3.5,0.3-5l-1.6-2.1c1-1.7,1.8-3.4,2.3-5.3l2.5-0.3c1.9-0.2,3.4-1.8,3.4-3.7l0-3.8c0-1.9-1.4-3.6-3.3-3.8
					l-2.5-0.3c-0.5-1.9-1.2-3.6-2.1-5.3l1.5-1.9c1.2-1.5,1.1-3.7-0.2-5l-2.7-2.8c-1.4-1.4-3.5-1.5-5-0.3l-1.8,1.4
					c-1.7-1-3.6-1.9-5.5-2.4l-0.2-2.4c-0.2-1.9-1.8-3.4-3.7-3.4l-3.8,0c-1.9,0-3.6,1.4-3.8,3.3l-0.3,2.4c-2,0.5-3.9,1.3-5.7,2.3
					l-1.9-1.6c-1.5-1.2-3.7-1.1-5,0.2l-2.8,2.7c-1.4,1.4-1.5,3.5-0.3,5l1.6,2.1c-0.9,1.7-1.7,3.4-2.2,5.3L31.1,106.3z"/>
			</g>
		</g>
	</g>
</g>
</svg>
