<?xml version="1.0" encoding="utf-8"?>
<!-- Generator: Adobe Illustrator 18.1.1, SVG Export Plug-In . SVG Version: 6.00 Build 0)  -->
<!DOCTYPE svg PUBLIC "-//W3C//DTD SVG 1.1//EN" "http://www.w3.org/Graphics/SVG/1.1/DTD/svg11.dtd">
<svg version="1.1" id="Layer_1" xmlns="http://www.w3.org/2000/svg" xmlns:xlink="http://www.w3.org/1999/xlink" x="0px" y="0px"
	 width="129.1px" height="23.7px" viewBox="0 0 129.1 23.7" enable-background="new 0 0 129.1 23.7" xml:space="preserve">
<g>
	<defs>
		<rect id="SVGID_1_" x="0" y="0" width="129.4" height="24.4"/>
	</defs>
	<clipPath id="SVGID_2_">
		<use xlink:href="#SVGID_1_"  overflow="visible"/>
	</clipPath>
	<path clip-path="url(#SVGID_2_)" fill="#58595B" d="M16.6,3.1c0.2,0,0.4,0,0.5,0.1C14.9,3.8,11.3,6,11.3,6
		C11.3,5.9,13.6,4.1,16.6,3.1"/>
	<path clip-path="url(#SVGID_2_)" fill="#58595B" d="M15.6,3.1h0.4c-2,0.7-2.9,1.3-2.9,1.3l0-0.1C13.1,4.3,13.8,3.8,15.6,3.1"/>
	<path clip-path="url(#SVGID_2_)" fill="#58595B" d="M5,24.4c-1,0-1.9-0.3-2.6-0.7c0-1.1,0.1-2.1,0.3-3.2C4.1,11.6,10.3,5.7,18,3.4
		c1.9,0.7,3.3,2.5,3.3,4.7v11.4c0,2.7-2.2,5-5,5H5z M0,19.5V8.1c0-2.7,2.2-5,5-5h9.9c-0.3,0.1-0.6,0.3-1,0.4
		C13.1,3.9,10.7,5,8.3,6.8C4.4,9.8,1.2,14.2,0,19.5"/>
	<path clip-path="url(#SVGID_2_)" fill="#58595B" d="M22.1,2.4c-0.2,0-1,0.1-1.6,0.2c-0.5,0.1-1,0.2-1,0.2l0,0c0,0,0.7-0.1,1.5-0.2
		c0.4-0.1,1.4-0.2,1.6-0.1c-0.4,0.1-1.2,0.2-2.1,0.3l0,0C19.7,3,18.9,3.2,18,3.4c-0.3-0.1-0.6-0.2-0.9-0.2c0.5-0.2,1.1-0.3,1.7-0.4
		c2.1-0.5,3.7-0.6,4.7-0.7C23.6,2.1,22.7,2.2,22.1,2.4c-0.4,0-0.7,0-0.7,0l0,0c0,0,0.1,0,0.3,0C21.9,2.4,22.2,2.4,22.1,2.4
		 M14.8,3.1c1.1-0.4,2.3-0.7,3.7-1.1c1.8-0.4,2.9-0.4,4.1-0.5c-1.4,0.1-3.1,0.3-5.3,0.9c-0.7,0.2-1.3,0.4-1.8,0.6H14.8z M15.9,3.1
		c0.4-0.2,0.9-0.3,1.4-0.5c1.8-0.5,3.6-0.8,5-0.9c0.6,0,1-0.1,1.4,0c-0.4,0-0.9,0.1-1.5,0.2c-1.4,0.2-3.2,0.5-4.6,0.9
		c-0.3,0.1-0.6,0.2-0.9,0.3c-0.1,0-0.2,0-0.3,0H15.9z"/>
	<path clip-path="url(#SVGID_2_)" fill="#58595B" d="M17.8,2.9c0,0,1-0.4,2.9-0.7c3.1-0.5,5.6-0.4,5.6-0.4S23,1.9,20.2,2.4
		C18.3,2.8,17.8,2.9,17.8,2.9"/>
	<path clip-path="url(#SVGID_2_)" fill="#58595B" d="M42.1,10.1c0-3-1.9-5.2-5.2-5.2c-1.5,0-2.8,0.6-3.7,1.6c-0.8-1-2.1-1.6-3.7-1.6
		c-3.2,0-5.2,2.2-5.2,5.2v6.7h3V10c0-1.3,0.9-2.2,2.3-2.2c2,0,2.2,1.6,2.2,2.2v6.8h3V10c0-1.3,0.9-2.2,2.3-2.2c2,0,2.2,1.6,2.2,2.2
		v6.8h3V10.1z"/>
</g>
<path fill="#58595B" d="M46.9,5.2h-3v11.6h3V5.2z M46.9,1.1h-3v2.8h3V1.1z"/>
<rect x="48.8" y="0" fill="#58595B" width="3" height="16.8"/>
<rect x="53.7" y="0" fill="#58595B" width="3" height="16.8"/>
<g>
	<defs>
		<rect id="SVGID_3_" x="0" y="0" width="129.4" height="24.4"/>
	</defs>
	<clipPath id="SVGID_4_">
		<use xlink:href="#SVGID_3_"  overflow="visible"/>
	</clipPath>
	<path clip-path="url(#SVGID_4_)" fill="#58595B" d="M66.4,13.1h3.1c-0.7,2.4-2.7,4-5.6,4c-3.3,0-6-2.7-6-6.1c0-3.4,2.7-6.1,6-6.1
		c2.8,0,5.1,1.8,5.7,4.9L67,10.8c-0.1-1.9-1.5-3.3-3.2-3.3c-1.8,0-3.2,1.6-3.2,3.5s1.4,3.5,3.2,3.5C64.8,14.5,65.8,14,66.4,13.1"/>
	<path clip-path="url(#SVGID_4_)" fill="#58595B" d="M70.6,10.1v6.7h3V10c0-1.3,0.9-2.2,2.3-2.2c2,0,2.2,1.6,2.2,2.2v6.8h3v-6.7
		c0-3-1.9-5.2-5.2-5.2C72.7,4.9,70.6,7.1,70.6,10.1"/>
	<path clip-path="url(#SVGID_4_)" fill="#58595B" d="M82.6,10.1v6.7h3V10c0-1.3,0.9-2.2,2.3-2.2c2,0,2.2,1.6,2.2,2.2v6.8h3v-6.7
		c0-3-1.9-5.2-5.2-5.2C84.7,4.9,82.6,7.1,82.6,10.1"/>
</g>
<path fill="#58595B" d="M97.8,5.2h-3v11.6h3V5.2z M97.8,1.1h-3v2.8h3V1.1z"/>
<g>
	<defs>
		<rect id="SVGID_5_" x="0" y="0" width="129.4" height="24.4"/>
	</defs>
	<clipPath id="SVGID_6_">
		<use xlink:href="#SVGID_5_"  overflow="visible"/>
	</clipPath>
	<path clip-path="url(#SVGID_6_)" fill="#58595B" d="M110,11.9V5.2h-3V12c0,1.3-0.9,2.2-2.3,2.2c-2,0-2.2-1.6-2.2-2.2V5.2h-3v6.7
		c0,3,1.9,5.2,5.2,5.2C107.9,17.1,110,14.8,110,11.9"/>
	<path clip-path="url(#SVGID_6_)" fill="#58595B" d="M129.4,10.1c0-3-1.9-5.2-5.2-5.2c-1.5,0-2.8,0.6-3.7,1.6
		c-0.8-1-2.1-1.6-3.7-1.6c-3.2,0-5.2,2.2-5.2,5.2v6.7h3V10c0-1.3,0.9-2.2,2.3-2.2c2,0,2.2,1.6,2.2,2.2v6.8h3V10
		c0-1.3,0.9-2.2,2.3-2.2c2,0,2.2,1.6,2.2,2.2v6.8h3V10.1z"/>
	<path clip-path="url(#SVGID_6_)" fill="#58595B" d="M57.8,4.9C57.8,4.9,57.9,4.9,57.8,4.9C57.9,4.9,57.9,4.9,57.8,4.9
		C57.9,4.9,57.9,4.9,57.8,4.9C57.9,4.9,57.8,4.9,57.8,4.9"/>
	<path clip-path="url(#SVGID_6_)" fill="#58595B" d="M60.5,9.6h9c0.1,0.4,0.1,0.8,0.1,1.2c0,0.4,0,0.8-0.1,1.2h-9V9.6z"/>
	<path clip-path="url(#SVGID_6_)" fill="#58595B" d="M28.7,23.7v-4.9h-0.8l-1.1,2.6c-0.1,0.3-0.3,0.6-0.3,0.8
		c-0.1-0.2-0.2-0.6-0.3-0.8l-1.1-2.6h-0.8v4.9H25v-2.6c0-0.3,0-0.7,0-0.9c0.1,0.1,0.2,0.5,0.3,0.8l1.2,2.7l1.2-2.7
		c0.1-0.3,0.3-0.6,0.3-0.8c0,0.1,0,0.6,0,0.9v2.6H28.7z"/>
	<path clip-path="url(#SVGID_6_)" fill="#58595B" d="M33.9,21.9h-1.5l0.4-1.1c0.1-0.4,0.3-0.9,0.4-1.1c0.1,0.2,0.3,0.8,0.4,1.1
		L33.9,21.9z M35.3,23.7l-1.8-4.9h-0.8L31,23.7h0.8l0.4-1.2h2l0.4,1.2H35.3z"/>
	<path clip-path="url(#SVGID_6_)" fill="#58595B" d="M40.7,20.3c0,0.5-0.3,0.8-0.8,0.8h-1.4v-1.6h1.4C40.3,19.5,40.7,19.8,40.7,20.3
		 M41.4,20.2c0-1-0.7-1.5-1.6-1.5h-2.1v4.9h0.7v-1.9h1.1l1,1.9h0.8l-1-2C41,21.5,41.4,21,41.4,20.2"/>
	<path clip-path="url(#SVGID_6_)" fill="#58595B" d="M47.8,23.7L46,20.6l1.4-1.8h-0.8l-1.4,1.8c-0.2,0.2-0.5,0.6-0.6,0.7
		c0-0.2,0-0.7,0-0.9v-1.7h-0.7v4.9h0.7v-1.4l0.9-1.1l1.4,2.5H47.8z"/>
</g>
<polygon fill="#58595B" points="50.1,18.8 50.1,23.7 53.3,23.7 53.3,23 50.8,23 50.8,21.4 52.2,21.4 52.2,20.7 50.8,20.7 50.8,19.5 
	53.2,19.5 53.2,18.8 "/>
<polygon fill="#58595B" points="55.5,18.8 55.5,19.5 56.9,19.5 56.9,23.7 57.6,23.7 57.6,19.5 59,19.5 59,18.8 "/>
<rect x="61.4" y="18.8" fill="#58595B" width="0.7" height="4.9"/>
<g>
	<defs>
		<rect id="SVGID_7_" x="0" y="0" width="129.4" height="24.4"/>
	</defs>
	<clipPath id="SVGID_8_">
		<use xlink:href="#SVGID_7_"  overflow="visible"/>
	</clipPath>
	<path clip-path="url(#SVGID_8_)" fill="#58595B" d="M68.5,23.7v-4.9h-0.7v2.5c0,0.3,0,1,0,1.1c-0.1-0.1-0.3-0.5-0.4-0.7l-1.9-3
		h-0.7v4.9h0.7v-2.5c0-0.3,0-0.9,0-1.1c0.1,0.1,0.2,0.4,0.4,0.6l1.9,3.1H68.5z"/>
	<path clip-path="url(#SVGID_8_)" fill="#58595B" d="M74.9,21.8v-0.6h-1.5v0.7h0.8v0c0,0.6-0.3,1.1-1.1,1.1c-0.8,0-1.3-0.7-1.3-1.8
		c0-1.1,0.5-1.8,1.3-1.8c0.5,0,0.8,0.2,1,0.6l0.6-0.4c-0.3-0.6-0.9-0.9-1.7-0.9c-1.3,0-2.1,1-2.1,2.5c0,1.5,0.8,2.5,2.1,2.5
		C74.1,23.7,74.9,23,74.9,21.8"/>
	<path clip-path="url(#SVGID_8_)" fill="#58595B" d="M83.9,22.3c0-0.9-0.6-1.2-1.6-1.5c-0.8-0.3-1.1-0.4-1.1-0.8
		c0-0.3,0.2-0.6,0.8-0.6c0.5,0,0.8,0.2,1.1,0.5l0.5-0.5c-0.4-0.4-0.9-0.7-1.6-0.7c-0.9,0-1.6,0.5-1.6,1.4c0,0.9,0.5,1.1,1.5,1.4
		c0.8,0.2,1.1,0.4,1.1,0.8c0,0.5-0.3,0.7-1,0.7c-0.5,0-0.9-0.2-1.3-0.6L80.3,23c0.4,0.5,1,0.8,1.7,0.8
		C83.3,23.7,83.9,23.1,83.9,22.3"/>
	<path clip-path="url(#SVGID_8_)" fill="#58595B" d="M89.5,21.2c0,1.1-0.5,1.8-1.3,1.8c-0.9,0-1.3-0.7-1.3-1.8
		c0-1.1,0.5-1.8,1.3-1.8C89,19.4,89.5,20.1,89.5,21.2 M90.2,21.2c0-1.5-0.8-2.5-2.1-2.5c-1.3,0-2.1,1-2.1,2.5c0,1.5,0.8,2.5,2.1,2.5
		C89.4,23.7,90.2,22.7,90.2,21.2"/>
</g>
<polygon fill="#58595B" points="92.6,18.8 92.6,23.7 95.8,23.7 95.8,22.9 93.4,22.9 93.4,18.8 "/>
<g>
	<defs>
		<rect id="SVGID_9_" x="0" y="0" width="129.4" height="24.4"/>
	</defs>
	<clipPath id="SVGID_10_">
		<use xlink:href="#SVGID_9_"  overflow="visible"/>
	</clipPath>
	<path clip-path="url(#SVGID_10_)" fill="#58595B" d="M101.6,21.6v-2.8h-0.7v2.9c0,0.9-0.4,1.4-1.1,1.4c-0.7,0-1.1-0.5-1.1-1.4v-2.8
		h-0.7v2.8c0,1.3,0.6,2.1,1.8,2.1C100.9,23.7,101.6,23,101.6,21.6"/>
</g>
<polygon fill="#58595B" points="103.9,18.8 103.9,19.5 105.3,19.5 105.3,23.7 106.1,23.7 106.1,19.5 107.5,19.5 107.5,18.8 "/>
<rect x="109.9" y="18.8" fill="#58595B" width="0.7" height="4.9"/>
<g>
	<defs>
		<rect id="SVGID_11_" x="0" y="0" width="129.4" height="24.4"/>
	</defs>
	<clipPath id="SVGID_12_">
		<use xlink:href="#SVGID_11_"  overflow="visible"/>
	</clipPath>
	<path clip-path="url(#SVGID_12_)" fill="#58595B" d="M116.5,21.2c0,1.1-0.5,1.8-1.3,1.8c-0.8,0-1.3-0.7-1.3-1.8
		c0-1.1,0.5-1.8,1.3-1.8C116,19.4,116.5,20.1,116.5,21.2 M117.2,21.2c0-1.5-0.8-2.5-2.1-2.5c-1.3,0-2.1,1-2.1,2.5
		c0,1.5,0.8,2.5,2.1,2.5C116.4,23.7,117.2,22.7,117.2,21.2"/>
	<path clip-path="url(#SVGID_12_)" fill="#58595B" d="M123.3,23.7v-4.9h-0.7v2.5c0,0.3,0,1,0,1.1c-0.1-0.1-0.3-0.5-0.4-0.7l-1.9-3
		h-0.7v4.9h0.7v-2.5c0-0.3,0-0.9,0-1.1c0.1,0.1,0.2,0.4,0.4,0.6l1.9,3.1H123.3z"/>
	<path clip-path="url(#SVGID_12_)" fill="#58595B" d="M129.3,22.3c0-0.9-0.6-1.2-1.6-1.5c-0.8-0.3-1.1-0.4-1.1-0.8
		c0-0.3,0.2-0.6,0.8-0.6c0.5,0,0.8,0.2,1.1,0.5l0.5-0.5c-0.4-0.4-0.9-0.7-1.6-0.7c-0.9,0-1.6,0.5-1.6,1.4c0,0.9,0.5,1.1,1.5,1.4
		c0.8,0.2,1.1,0.4,1.1,0.8c0,0.5-0.3,0.7-1,0.7c-0.5,0-0.9-0.2-1.3-0.6l-0.5,0.5c0.4,0.5,1,0.8,1.7,0.8
		C128.7,23.7,129.3,23.1,129.3,22.3"/>
</g>
</svg>
