<?xml version="1.0" encoding="utf-8"?>
<!-- Generator: Adobe Illustrator 18.1.1, SVG Export Plug-In . SVG Version: 6.00 Build 0)  -->
<!DOCTYPE svg PUBLIC "-//W3C//DTD SVG 1.1//EN" "http://www.w3.org/Graphics/SVG/1.1/DTD/svg11.dtd">
<svg version="1.1" id="Layer_1" xmlns="http://www.w3.org/2000/svg" xmlns:xlink="http://www.w3.org/1999/xlink" x="0px" y="0px"
	 width="279.2px" height="82.4px" viewBox="0 0 279.2 82.4" enable-background="new 0 0 279.2 82.4" xml:space="preserve">
<g>
	<defs>
		<rect id="SVGID_1_" y="0" width="279.2" height="82.4"/>
	</defs>
	<clipPath id="SVGID_2_">
		<use xlink:href="#SVGID_1_"  overflow="visible"/>
	</clipPath>
	<path clip-path="url(#SVGID_2_)" d="M253.9,82.4v-4.6l-5.3-5.7h3.2l3.5,3.9l3.5-3.9h2.8l-5.3,5.6v4.6H253.9z M231.8,82.4V72.2h1.6
		l7.2,6c0.2,0.2,0.5,0.4,0.6,0.6c0.2,0.2,0.4,0.4,0.5,0.5c0-0.6-0.1-1-0.1-1.2c0-0.2,0-0.4,0-0.5v-5.4h2.1v10.2h-1.6l-7.5-6.3
		c-0.2-0.2-0.3-0.3-0.5-0.4c-0.1-0.1-0.3-0.3-0.4-0.4c0,0.3,0.1,0.6,0.1,0.9c0,0.3,0,0.5,0,0.7v5.5H231.8z M212.6,82.4l5.8-10.2h2.3
		l5.9,10.2h-2.7l-1.2-2.2h-6.5l-1.2,2.2H212.6z M217.1,78.3h4.5l-2.2-4.2L217.1,78.3z M198.8,82.4V72.2h8.8c0.8,0,1.4,0.2,1.8,0.5
		c0.4,0.3,0.5,0.8,0.5,1.5v2.3c0,0.7-0.2,1.2-0.5,1.5c-0.4,0.3-1,0.5-1.8,0.5h-6.4v4H198.8z M206.6,73.9h-5.4v2.7h5.4
		c0.4,0,0.7-0.1,0.8-0.2c0.2-0.1,0.2-0.3,0.2-0.6v-1.1c0-0.3-0.1-0.5-0.2-0.6C207.2,74,207,73.9,206.6,73.9 M178.4,82.4V72.2h1.9
		l4.8,6.2l4.7-6.2h1.9v10.2h-2.2v-6.3c0-0.1,0-0.3,0-0.5c0-0.2,0-0.4,0.1-0.6c-0.1,0.3-0.2,0.5-0.3,0.7c-0.1,0.2-0.2,0.3-0.3,0.4
		l-3.8,5.1h-0.5l-3.9-5.1c-0.1-0.2-0.3-0.4-0.4-0.5c-0.1-0.2-0.2-0.3-0.2-0.5c0,0.2,0,0.4,0,0.6c0,0.2,0,0.3,0,0.5v6.3H178.4z
		 M161.2,80.5h7.9V74h-7.9V80.5z M158.8,74.6c0-0.9,0.2-1.6,0.5-1.9c0.3-0.3,1-0.5,2-0.5h7.5c1,0,1.7,0.2,2,0.5
		c0.3,0.3,0.5,1,0.5,1.9V80c0,0.9-0.2,1.6-0.5,1.9c-0.4,0.3-1,0.5-2,0.5h-7.5c-1,0-1.7-0.2-2-0.5c-0.3-0.3-0.5-1-0.5-1.9V74.6z
		 M149.7,74h-6.4v6.5h6.4v-2.2l2.4,0.5V80c0,0.9-0.2,1.6-0.5,1.9c-0.4,0.3-1,0.5-2,0.5h-6.1c-1,0-1.7-0.2-2-0.5
		c-0.3-0.3-0.5-1-0.5-1.9v-5.4c0-0.9,0.2-1.6,0.5-1.9c0.4-0.3,1-0.5,2-0.5h6.1c1,0,1.7,0.2,2,0.5c0.4,0.3,0.5,1,0.5,1.9v1l-2.4,0.4
		V74z M115.7,82.4V72.2h8.8c0.8,0,1.4,0.2,1.8,0.5c0.4,0.3,0.5,0.8,0.5,1.5v2.4c0,0.7-0.2,1.2-0.5,1.5c-0.4,0.3-1,0.5-1.8,0.5h-1.3
		l4.7,3.9h-3.4l-4.1-3.9H118v3.9H115.7z M123.4,73.9H118v2.9h5.4c0.4,0,0.7-0.1,0.8-0.2c0.2-0.1,0.2-0.3,0.2-0.6v-1.2
		c0-0.3-0.1-0.5-0.2-0.6C124.1,74,123.8,73.9,123.4,73.9 M98.4,80.5h7.9V74h-7.9V80.5z M96,74.6c0-0.9,0.2-1.6,0.5-1.9
		c0.3-0.3,1-0.5,2-0.5h7.5c1,0,1.7,0.2,2,0.5c0.3,0.3,0.5,1,0.5,1.9V80c0,0.9-0.2,1.6-0.5,1.9c-0.3,0.3-1,0.5-2,0.5h-7.5
		c-1,0-1.7-0.2-2-0.5c-0.3-0.3-0.5-1-0.5-1.9V74.6z M86.6,74v8.4h-2.4V74h-4.7v-1.8h11.8V74H86.6z M63.9,82.4l5.8-10.2H72l5.9,10.2
		h-2.7L74,80.2h-6.5l-1.2,2.2H63.9z M68.5,78.3H73l-2.2-4.2L68.5,78.3z M54.5,82.4l-5.9-10.2h2.7l4.1,7.4l4-7.4h2.4l-5.6,10.2H54.5z
		 M34.1,82.4V72.2h10.5v1.7h-8.1v2.3h4.7v1.7h-4.7v2.5h8.2v1.9H34.1z M18.5,82.4V72.2h2.4v8.3h7.7v1.9H18.5z M1.5,82.4V72.2H12v1.7
		H3.9v2.3h4.7v1.7H3.9v2.5h8.2v1.9H1.5z"/>
	<path clip-path="url(#SVGID_2_)" fill="#9B8542" d="M132.1,30.8c-0.9-0.6-1.5-0.8-1.5-1.9c0.4-0.7,3.3-0.6,3.5,0
		C134.1,30.3,133.7,31.2,132.1,30.8 M130.4,49.5c-8.9-2.2-10.7-8.1-8.3-16.3c1-1.9,1.9-2.8,3.3-4.1c0.6-0.5,1.5-1.2,1.7-1.6
		c0-3.4,0.3-6,2.5-8.1c1.3-1.3,2.7-2.5,4.5-3c3.6-0.9,8.9-0.6,6.3,6c-1.9,2.1-2.9,1.5-3.2,0.8c-0.1-0.5,0.1-1.4,0.1-2.1
		c0-0.4-0.1-0.8-0.3-1.3c-1.5-1.6-3.5-0.5-5.1,0.3c0,0.1,0,0.2,0,0.3c-2.1,1.1-2.5,3.7-2.5,5.8c2.9-0.3,5.3-0.8,6.5,2.4
		c0,4.8-3.1,5.3-6.8,3.6c-0.6-0.5-0.9-0.9-1.2-1.4c-0.1-0.1-0.2-0.3-0.3-0.5c-2.2,0-2.7,4.6-2.9,6.1c0.8,10.9,13.9,14,18.4,3.7
		c0.2-1.4,0.7-3.4-0.1-4.6c-0.4-0.7-0.9-1.3-1.7-1.4c-1-0.2-1.8,0-2.4,0.3c-1.1,0.8-1.7,2.6-0.9,3.7c0.9,0.9,2.4-0.6,2.8-0.1
		c1.3,3-2.3,4.2-4.5,2.6c-3-3.1-2.5-8,1.7-9.9c0.8-0.4,1.1-0.7,1.7-1c4.4-1.9,13.3-5.9,10.7-11.1c-0.3-0.6-0.6-0.7-1.4-0.8
		c-1.5,0.1-2.7,0.6-2.5,2.4c0.5,0.2,1,0.4,1.6,0.6c1.6,4.8-8,3.5-3.5-3.1c4.6-3.8,8.8-2,8.8,4c-0.8,4.8-4,7.3-8,9.7
		c-0.2,0.6,0,0.8,0.2,1.4c0.3,0,0.4,0.4,0.6,0.6c1.4,6.5-1.3,11.2-6.1,14C137.6,49,133.5,50.3,130.4,49.5"/>
	<path clip-path="url(#SVGID_2_)" d="M104.2,43.9V18.9c-0.9-2.2-1.7-3.4-2.4-3.4c-0.8,0-1.1,0.5-1.1,1.5v27.8c0,1.4,0.4,2.1,1.3,2.1
		C102.6,46.9,103.4,45.9,104.2,43.9 M104.2,45.3c-1,3-2.3,4.4-4,4.4c-2.2,0-3.3-2.2-3.3-6.5V17.9c0-1.5,0.3-2.8,0.8-3.8
		c0.5-1,1.2-1.5,2.2-1.5c1.6,0,3.1,1.6,4.4,4.7V2.8c-0.4-0.3-0.9-0.5-1.4-0.6V1.6h5.2v46.6c0.2,0.2,0.7,0.4,1.5,0.6v0.5h-5.3V45.3z
		 M88.9,48.3V2.8c-0.4-0.3-0.9-0.5-1.5-0.6V1.6h5.3v46.6c0.4,0.3,0.9,0.5,1.4,0.6v0.5h-6.7v-0.5C88,48.8,88.5,48.6,88.9,48.3
		 M77.6,28.3H81v-9.9c0-2.2-0.6-3.3-1.7-3.3c-1.2,0-1.7,1.2-1.7,3.6V28.3z M84.8,38.8v4.6c0,1.8-0.5,3.3-1.5,4.5
		c-1,1.2-2.4,1.8-4.1,1.8c-1.7,0-3-0.6-4-1.7c-0.9-1.1-1.4-2.6-1.4-4.4V19.6c0-2.1,0.5-3.8,1.4-5c0.9-1.2,2.3-1.9,4.1-1.9
		c1.8,0,3.2,0.7,4.1,2c0.9,1.3,1.4,3.1,1.4,5.4v10.8h-7.2v13.7c0,1.8,0.6,2.7,1.7,2.7c0.7,0,1.2-0.3,1.4-1c0.2-0.7,0.4-2,0.4-3.9
		c0-2.6-0.1-4.2-0.2-4.9c-0.1-0.7-0.4-1.5-0.9-2.4l0.2-0.3L84.8,38.8z M65.8,48.3V14.1c-0.4-0.3-0.9-0.5-1.4-0.6V13h5.2v35.3
		c0.5,0.3,1,0.5,1.6,0.6v0.5h-6.8v-0.5C65,48.7,65.5,48.5,65.8,48.3 M65.8,3.4h3.8v6.1h-3.8V3.4z M56.2,48.3V15.8h-1.4V13h1.4V9.2
		c0-2.8,0.4-4.9,1.2-6.1c0.8-1.2,2.1-1.8,4-1.8c3,0,4.5,1.4,4.6,4.1l-4,3.6l-0.2-0.4c0.6-1.1,0.9-2,0.9-2.7c0-1.3-0.5-2-1.6-2
		C60.4,3.8,60,4.6,60,6v7h1.4v2.8H60v32.4c0.4,0.3,0.9,0.5,1.4,0.6v0.5h-6.6v-0.5C55.3,48.8,55.8,48.5,56.2,48.3 M41.9,48.3V14.1
		c-0.4-0.2-0.9-0.5-1.5-0.6V13h5.3v5.4c0.7-2.4,1.4-4,1.9-4.7c0.6-0.7,1.2-1.1,2-1.1c1,0,1.8,0.6,2.4,1.7c0.6,1.2,0.9,2.6,0.9,4.4
		v4.4l-4.2,3.9l-0.2-0.4c0.4-0.9,0.6-2.8,0.6-5.7c0-2.1-0.1-3.5-0.2-4.2c-0.1-0.7-0.4-1.1-0.8-1.1c-0.6,0-1.1,0.8-1.7,2.3
		c-0.5,1.5-0.8,3.3-0.8,5.4v24.9c0.4,0.3,0.9,0.5,1.4,0.6v0.5h-6.7v-0.5C40.9,48.8,41.4,48.6,41.9,48.3 M33.7,27.4l-1.8,1.7
		c-1.1,1-1.6,2.5-1.6,4.7v10.2c0,1.8,0.4,2.8,1.3,2.8c0.6,0,1.1-0.5,1.5-1.6c0.4-1,0.7-1.9,0.7-2.6V27.4z M33.7,49.4v-4.1
		c-0.7,1.9-1.4,3.1-1.9,3.6c-0.6,0.6-1.2,0.9-2,0.9c-2.2,0-3.3-2.2-3.3-6.5V36c0-2.3,0.2-4,0.7-5.2c0.5-1.2,1.4-2.3,2.7-3.4l3.8-2.9
		v-7.1c0-1.5-0.4-2.2-1.3-2.2c-1.2,0-1.8,1.3-1.8,3.9c0,1.3,0.2,2.4,0.6,3.2l-0.3,0.3l-4-2.5v-0.9c0-1.9,0.4-3.5,1.4-4.7
		c0.9-1.2,2.3-1.9,4.1-1.9c3.4,0,5.1,2.3,5.1,6.8v28.8c0.4,0.3,0.9,0.5,1.5,0.6v0.5H33.7z M17.8,44.1l2.5-41.3
		c-0.5-0.4-1-0.6-1.4-0.6V1.6h6.4v0.5c-0.4,0-0.9,0.2-1.4,0.6l-4.4,47h-3.2l-2.4-22.3l-1.2-12l-1.2,12L8.7,49.8H5.4l-3.9-47
		C1,2.4,0.5,2.2,0,2.1V1.6h7v0.5c-0.8,0-1.4,0.2-1.6,0.6L7.2,45l1.2-17.4l3.1-26h3l2.7,25.1L17.8,44.1z"/>
	<path clip-path="url(#SVGID_2_)" d="M255.2,43.9V18.9c-0.9-2.2-1.7-3.4-2.4-3.4c-0.8,0-1.1,0.5-1.1,1.5v27.8c0,1.4,0.4,2.1,1.3,2.1
		C253.5,46.9,254.3,45.9,255.2,43.9 M255.2,45.3c-1,3-2.3,4.4-4,4.4c-2.2,0-3.3-2.2-3.3-6.5V17.9c0-1.5,0.3-2.8,0.8-3.8
		c0.5-1,1.2-1.5,2.2-1.5c1.6,0,3.1,1.6,4.4,4.7V2.8c-0.4-0.3-0.9-0.5-1.4-0.6V1.6h5.2v46.6c0.2,0.2,0.7,0.4,1.5,0.6v0.5h-5.3V45.3z
		 M233.9,48.3V14.1c-0.4-0.2-0.9-0.5-1.5-0.6V13h5.3v5.4c0.7-2.4,1.4-4,1.9-4.7c0.5-0.7,1.2-1.1,2-1.1c1,0,1.8,0.6,2.4,1.7
		c0.6,1.2,0.9,2.6,0.9,4.4v4.4l-4.2,3.9l-0.2-0.4c0.4-0.9,0.6-2.8,0.6-5.7c0-2.1-0.1-3.5-0.2-4.2c-0.1-0.7-0.4-1.1-0.8-1.1
		c-0.6,0-1.1,0.8-1.7,2.3c-0.5,1.5-0.8,3.3-0.8,5.4v24.9c0.4,0.3,0.9,0.5,1.4,0.6v0.5h-6.7v-0.5C232.9,48.8,233.4,48.6,233.9,48.3
		 M225.9,17.9c0-1.8-0.6-2.7-1.7-2.7c-1.2,0-1.7,0.9-1.7,2.7v26.7c0,1.7,0.6,2.6,1.8,2.6c1.1,0,1.7-0.9,1.7-2.6V17.9z M229.6,20
		v22.5c0,4.8-1.8,7.2-5.4,7.2c-3.7,0-5.6-2.3-5.6-7V19.7c0-2,0.5-3.6,1.4-5c0.9-1.4,2.3-2,4.2-2c1.7,0,3,0.6,4,1.9
		C229.1,15.8,229.6,17.6,229.6,20 M210.5,48.3V15.8H209V13h1.4V9.2c0-2.8,0.4-4.9,1.2-6.1c0.8-1.2,2.1-1.8,4-1.8
		c3,0,4.5,1.4,4.6,4.1l-4,3.6l-0.2-0.4c0.6-1.1,0.9-2,0.9-2.7c0-1.3-0.5-2-1.6-2c-0.8,0-1.2,0.7-1.2,2.2v7h1.4v2.8h-1.4v32.4
		c0.4,0.3,0.9,0.5,1.4,0.6v0.5H209v-0.5C209.6,48.8,210.1,48.5,210.5,48.3 M198.6,17.8c1-3.4,2.4-5.1,4.1-5.1c0.9,0,1.7,0.4,2.3,1.4
		c0.6,0.9,0.9,2.1,0.9,3.6v30.6c0.5,0.3,0.9,0.5,1.4,0.6v0.5h-6.6v-0.5c0.6-0.1,1.1-0.4,1.4-0.6V18c0-1.4-0.3-2.1-0.9-2.1
		c-0.7,0-1.3,0.8-1.8,2.3c-0.5,1.6-0.8,3.6-0.8,6v24c0.4,0.3,0.9,0.5,1.5,0.6v0.5h-6.7v-0.5c0.6-0.1,1.1-0.4,1.4-0.6V14.1
		c-0.3-0.2-0.8-0.4-1.4-0.6V13h5.2V17.8z M186.7,27.4l-1.8,1.7c-1.1,1-1.6,2.5-1.6,4.7v10.2c0,1.8,0.4,2.8,1.3,2.8
		c0.6,0,1.1-0.5,1.5-1.6c0.4-1,0.7-1.9,0.7-2.6V27.4z M186.7,49.4v-4.1c-0.7,1.9-1.4,3.1-1.9,3.6c-0.6,0.6-1.2,0.9-2,0.9
		c-2.2,0-3.3-2.2-3.3-6.5V36c0-2.3,0.2-4,0.7-5.2c0.5-1.2,1.4-2.3,2.7-3.4l3.8-2.9v-7.1c0-1.5-0.4-2.2-1.3-2.2
		c-1.2,0-1.8,1.3-1.8,3.9c0,1.3,0.2,2.4,0.6,3.2l-0.3,0.3l-4-2.5v-0.9c0-1.9,0.4-3.5,1.4-4.7c0.9-1.2,2.3-1.9,4.1-1.9
		c3.4,0,5.1,2.3,5.1,6.9v28.8c0.4,0.3,0.9,0.5,1.5,0.6v0.5H186.7z M164.1,38.2l4.4-5.1l0.4,0.4c-0.4,1.2-0.7,3.3-0.7,6.2
		c0,3,0.1,4.9,0.3,5.8c0.2,0.8,0.7,1.2,1.5,1.2c1.5,0,2.2-2.3,2.2-6.8c0-2.6-0.2-4.7-0.7-6.5c-0.4-1.8-1.3-3.8-2.6-6
		c-1.4-2.5-2.3-4.3-2.8-5.4c-0.5-1.1-1-2.7-1.4-4.6c-0.4-1.9-0.6-3.9-0.6-5.9c0-6.8,2-10.2,5.9-10.2c4,0,6,3.8,6,11.3v1.9l-4.4,3.4
		l-0.3-0.3c0.4-1.5,0.7-3.2,0.7-5c0-2.6-0.1-4.7-0.3-6c-0.2-1.4-0.7-2.1-1.5-2.1c-1.3,0-1.9,2-1.9,6c0,3.6,0.2,6.1,0.7,7.6
		c0.5,1.5,1.5,3.6,2.9,6.2c1.9,3.3,3.1,6,3.7,8c0.5,2,0.8,4.3,0.8,6.9c0,7.1-2.1,10.6-6.3,10.6c-3.9,0-5.8-3.1-5.8-9.4V38.2z"/>
</g>
<rect x="1.7" y="59.8" fill="#9B8542" width="259.8" height="2.3"/>
<g>
	<defs>
		<rect id="SVGID_3_" y="0" width="279.2" height="82.4"/>
	</defs>
	<clipPath id="SVGID_4_">
		<use xlink:href="#SVGID_3_"  overflow="visible"/>
	</clipPath>
	<path clip-path="url(#SVGID_4_)" d="M270.2,7.3h0.9c1.1,0,1.9-0.3,1.9-1.2c0-0.7-0.5-1.3-1.8-1.3c-0.4,0-0.8,0-1,0V7.3z
		 M270.2,12.3h-1.8V3.6c0.7-0.1,1.4-0.2,2.8-0.2c1.5,0,2.4,0.2,3,0.7c0.5,0.4,0.8,1,0.8,1.9c0,1-0.7,1.8-1.7,2V8
		c0.8,0.1,1.2,0.8,1.4,2.1c0.2,1.3,0.3,1.9,0.5,2.1h-1.9c-0.2-0.3-0.3-1.1-0.5-2.2c-0.1-0.9-0.7-1.3-1.6-1.3h-0.8V12.3z M271.5,1.5
		c-3.2,0-5.9,2.8-5.9,6.2c0,3.5,2.6,6.2,5.9,6.2c3.3,0,5.9-2.7,5.9-6.2C277.4,4.3,274.8,1.5,271.5,1.5L271.5,1.5z M271.5,0
		c4.3,0,7.7,3.5,7.7,7.7c0,4.3-3.4,7.8-7.7,7.8c-4.3,0-7.7-3.4-7.7-7.8C263.8,3.5,267.2,0,271.5,0L271.5,0z"/>
</g>
</svg>
