<?xml version="1.0" encoding="utf-8"?>
<!-- Generator: Adobe Illustrator 19.2.0, SVG Export Plug-In . SVG Version: 6.00 Build 0)  -->
<svg version="1.1" id="Layer_2" xmlns="http://www.w3.org/2000/svg" xmlns:xlink="http://www.w3.org/1999/xlink" x="0px" y="0px"
	 width="279.2px" height="98px" viewBox="0 0 279.2 98" style="enable-background:new 0 0 279.2 98;" xml:space="preserve">
<style type="text/css">
	.st0{fill-rule:evenodd;clip-rule:evenodd;fill:#231F20;}
	.st1{fill-rule:evenodd;clip-rule:evenodd;fill:#0055A3;}
	.st2{fill:#231F20;}
	.st3{fill:#0055A3;}
</style>
<g>
	<path class="st0" d="M1.5,96.4V86.2H12v1.7H3.9v2.3h4.7v1.7H3.9v2.5h8.2v1.9H1.5L1.5,96.4z M18.5,96.4V86.2h2.4v8.3h7.7v1.9H18.5
		L18.5,96.4z M34.1,96.4V86.2h10.5v1.7h-8.1v2.3h4.7v1.7h-4.7v2.5h8.2v1.9H34.1L34.1,96.4z M54.5,96.4l-5.9-10.2h2.7l4.1,7.4l4-7.4
		h2.4l-5.6,10.2H54.5L54.5,96.4z M68.5,92.3H73l-2.2-4.2L68.5,92.3L68.5,92.3z M63.9,96.4l5.8-10.2H72l5.9,10.2h-2.7L74,94.2h-6.5
		l-1.2,2.2H63.9L63.9,96.4z M86.6,88v8.4h-2.4V88h-4.7v-1.8h11.8V88H86.6L86.6,88z M96,88.6c0-0.9,0.2-1.6,0.5-1.9
		c0.3-0.3,1-0.5,2-0.5h7.5c1,0,1.7,0.2,2,0.5c0.3,0.3,0.5,1,0.5,1.9V94c0,0.9-0.2,1.6-0.5,1.9c-0.4,0.3-1,0.5-2,0.5h-7.5
		c-1,0-1.7-0.2-2-0.5c-0.3-0.3-0.5-1-0.5-1.9V88.6L96,88.6z M98.4,94.5h7.9V88h-7.9V94.5L98.4,94.5z M123.4,87.9H118v2.9h5.4
		c0.4,0,0.7-0.1,0.8-0.2c0.2-0.1,0.2-0.3,0.2-0.6v-1.2c0-0.3-0.1-0.5-0.2-0.6C124.1,88,123.8,87.9,123.4,87.9L123.4,87.9z
		 M115.7,96.4V86.2h8.8c0.8,0,1.4,0.2,1.8,0.5c0.4,0.3,0.5,0.8,0.5,1.5v2.4c0,0.7-0.2,1.2-0.5,1.5c-0.4,0.3-1,0.5-1.8,0.5h-1.3
		l4.7,3.9h-3.4l-4.1-3.9H118v3.9H115.7L115.7,96.4z M149.7,88h-6.4v6.5h6.4v-2.2l2.4,0.5V94c0,0.9-0.2,1.6-0.5,1.9
		c-0.4,0.3-1,0.5-2,0.5h-6.1c-1,0-1.7-0.2-2-0.5c-0.3-0.3-0.5-1-0.5-1.9v-5.4c0-0.9,0.2-1.6,0.5-1.9c0.4-0.3,1-0.5,2-0.5h6.1
		c1,0,1.7,0.2,2,0.5c0.4,0.3,0.5,1,0.5,1.9v1l-2.4,0.4V88L149.7,88z M158.8,88.6c0-0.9,0.2-1.6,0.5-1.9c0.4-0.3,1-0.5,2-0.5h7.5
		c1,0,1.7,0.2,2,0.5c0.3,0.3,0.5,1,0.5,1.9V94c0,0.9-0.2,1.6-0.5,1.9c-0.4,0.3-1,0.5-2,0.5h-7.5c-1,0-1.7-0.2-2-0.5
		c-0.3-0.3-0.5-1-0.5-1.9V88.6L158.8,88.6z M161.2,94.5h7.9V88h-7.9V94.5L161.2,94.5z M178.5,96.4V86.2h1.9l4.8,6.2l4.7-6.2h1.9
		v10.2h-2.2v-6.3c0-0.1,0-0.3,0-0.5c0-0.2,0-0.4,0.1-0.6c-0.1,0.3-0.2,0.5-0.3,0.6c-0.1,0.2-0.2,0.3-0.3,0.4l-3.8,5.1h-0.5l-3.9-5.1
		c-0.1-0.2-0.3-0.4-0.4-0.6c-0.1-0.2-0.2-0.3-0.2-0.5c0,0.2,0,0.4,0,0.6c0,0.2,0,0.3,0,0.5v6.3H178.5L178.5,96.4z M206.6,87.9h-5.4
		v2.7h5.4c0.4,0,0.7-0.1,0.8-0.2c0.2-0.1,0.2-0.3,0.2-0.6v-1.1c0-0.3-0.1-0.5-0.2-0.6C207.3,88,207,87.9,206.6,87.9L206.6,87.9z
		 M198.9,96.4V86.2h8.8c0.8,0,1.4,0.2,1.8,0.5c0.4,0.3,0.5,0.8,0.5,1.5v2.3c0,0.7-0.2,1.2-0.5,1.5c-0.4,0.3-1,0.5-1.8,0.5h-6.4v4
		H198.9L198.9,96.4z M217.2,92.3h4.5l-2.2-4.2L217.2,92.3L217.2,92.3z M212.6,96.4l5.8-10.2h2.3l5.9,10.2h-2.7l-1.2-2.2h-6.5
		l-1.2,2.2H212.6L212.6,96.4z M231.8,96.4V86.2h1.6l7.2,6c0.2,0.2,0.5,0.4,0.6,0.6c0.2,0.2,0.4,0.4,0.5,0.5c0-0.6-0.1-1-0.1-1.2
		c0-0.2,0-0.4,0-0.5v-5.4h2.1v10.2h-1.6l-7.5-6.3c-0.2-0.2-0.3-0.3-0.5-0.4c-0.1-0.1-0.3-0.3-0.4-0.4c0,0.3,0.1,0.6,0.1,0.9
		c0,0.3,0,0.5,0,0.7v5.5H231.8L231.8,96.4z M254,96.4v-4.6l-5.3-5.7h3.2l3.5,3.9l3.5-3.9h2.8l-5.3,5.6v4.6H254L254,96.4z"/>
	<path class="st1" d="M130.4,49.6c-8.9-2.2-10.7-8.1-8.3-16.3c1-1.9,1.9-2.8,3.3-4.1c0.6-0.5,1.5-1.2,1.7-1.6c0-3.4,0.3-6,2.5-8.1
		c1.3-1.3,2.7-2.5,4.5-3c3.6-0.9,8.9-0.6,6.3,6c-1.9,2.1-2.9,1.5-3.2,0.8c-0.1-0.5,0.1-1.4,0.1-2.1c0-0.4-0.1-0.8-0.3-1.3
		c-1.5-1.6-3.5-0.5-5.1,0.3c0,0.1,0,0.2,0,0.3c-2,1.1-2.5,3.7-2.5,5.8c2.9-0.3,5.3-0.8,6.5,2.4c0,4.8-3.1,5.3-6.8,3.6
		c-0.6-0.5-0.9-0.9-1.2-1.4c-0.1-0.1-0.2-0.3-0.3-0.4c-2.2,0-2.7,4.6-2.9,6.1c0.8,10.9,13.9,14,18.4,3.7c0.2-1.4,0.7-3.4-0.1-4.6
		c-0.4-0.7-0.9-1.3-1.7-1.4c-1-0.2-1.8-0.1-2.4,0.3c-1.1,0.8-1.7,2.6-0.9,3.7c0.9,0.9,2.4-0.6,2.8-0.1c1.3,3-2.3,4.2-4.5,2.6
		c-3-3.1-2.5-8,1.7-9.9c0.8-0.4,1.1-0.7,1.7-1c4.4-1.9,13.3-5.9,10.7-11.1c-0.3-0.6-0.5-0.8-1.4-0.8c-1.5,0.1-2.7,0.6-2.5,2.4
		c0.5,0.2,1,0.4,1.6,0.6c1.6,4.8-8,3.5-3.5-3.1c4.6-3.8,8.8-2,8.8,4c-0.8,4.8-4,7.3-8,9.7c-0.2,0.6,0,0.8,0.2,1.4
		c0.3,0,0.4,0.4,0.6,0.6c1.4,6.5-1.3,11.3-6.1,14C137.7,49.1,133.5,50.3,130.4,49.6L130.4,49.6z M132.1,30.9
		c-0.9-0.6-1.5-0.8-1.5-1.9c0.4-0.7,3.3-0.6,3.5,0C134.1,30.4,133.7,31.2,132.1,30.9L132.1,30.9z"/>
	<path class="st0" d="M17.8,44.1l2.5-41.3c-0.5-0.4-1-0.6-1.4-0.6V1.7h6.4v0.5c-0.4,0-0.9,0.3-1.4,0.6l-4.4,47h-3.2l-2.4-22.3
		l-1.2-12l-1.2,12L8.7,49.8H5.4l-3.9-47C1,2.4,0.5,2.2,0,2.2V1.7h7v0.5c-0.8,0-1.4,0.3-1.6,0.6l1.8,42.3l1.2-17.4l3.1-26h3l2.7,25.1
		L17.8,44.1L17.8,44.1z M33.7,49.5v-4.1c-0.7,1.9-1.4,3.1-1.9,3.6c-0.6,0.6-1.2,0.9-2,0.9c-2.2,0-3.3-2.2-3.3-6.5V36
		c0-2.3,0.2-4,0.7-5.2c0.5-1.2,1.4-2.3,2.7-3.3l3.8-2.9v-7.1c0-1.5-0.4-2.2-1.3-2.2c-1.2,0-1.8,1.3-1.8,3.9c0,1.3,0.2,2.4,0.6,3.2
		l-0.3,0.3l-4.1-2.5v-0.9c0-1.9,0.5-3.5,1.4-4.7c0.9-1.2,2.3-1.9,4.1-1.9c3.4,0,5.1,2.3,5.1,6.9v28.8c0.4,0.3,0.9,0.5,1.5,0.6v0.5
		H33.7L33.7,49.5z M33.7,27.5l-1.8,1.7c-1.1,1-1.6,2.5-1.6,4.7V44c0,1.8,0.4,2.8,1.3,2.8c0.6,0,1.1-0.5,1.5-1.6
		c0.4-1,0.7-1.9,0.7-2.6V27.5L33.7,27.5z M41.9,48.3V14.2c-0.4-0.3-0.9-0.5-1.5-0.6V13h5.3v5.4c0.7-2.4,1.4-4,1.9-4.7
		c0.6-0.7,1.2-1.1,2-1.1c1,0,1.8,0.6,2.4,1.7c0.6,1.2,0.9,2.6,0.9,4.4v4.4l-4.2,3.9l-0.2-0.4c0.4-0.9,0.6-2.8,0.6-5.7
		c0-2.1-0.1-3.5-0.2-4.2c-0.1-0.7-0.4-1.1-0.8-1.1c-0.6,0-1.1,0.8-1.7,2.3c-0.5,1.5-0.8,3.3-0.8,5.4v24.9c0.4,0.3,0.9,0.5,1.4,0.6
		v0.5h-6.7V49C40.9,48.8,41.4,48.6,41.9,48.3L41.9,48.3z M56.2,48.3V15.9h-1.4V13h1.4V9.2c0-2.8,0.4-4.9,1.2-6.1
		c0.8-1.2,2.1-1.8,4-1.8c3,0,4.5,1.4,4.6,4.1L62,9l-0.2-0.4c0.6-1.1,0.9-2,0.9-2.7c0-1.3-0.5-2-1.6-2c-0.8,0-1.2,0.7-1.2,2.2v7h1.4
		v2.8H60v32.4c0.4,0.3,0.9,0.5,1.4,0.6v0.5h-6.6V49C55.3,48.8,55.8,48.6,56.2,48.3L56.2,48.3z M65.8,3.5h3.8v6.1h-3.8V3.5L65.8,3.5z
		 M65.8,48.3V14.2c-0.4-0.3-0.9-0.5-1.4-0.6V13h5.2v35.3c0.5,0.3,1,0.5,1.6,0.6v0.5h-6.8V49C65,48.8,65.5,48.5,65.8,48.3L65.8,48.3z
		 M84.8,38.9v4.6c0,1.8-0.5,3.3-1.5,4.5c-1,1.2-2.4,1.8-4.1,1.8c-1.7,0-3-0.6-4-1.7c-0.9-1.1-1.4-2.6-1.4-4.4V19.6
		c0-2.1,0.5-3.8,1.4-5c0.9-1.2,2.3-1.9,4.1-1.9c1.8,0,3.2,0.7,4.1,2c0.9,1.3,1.4,3.1,1.4,5.4v10.8h-7.2v13.7c0,1.8,0.6,2.7,1.7,2.7
		c0.7,0,1.2-0.3,1.4-1c0.2-0.7,0.4-2,0.4-3.9c0-2.6-0.1-4.2-0.2-4.9c-0.1-0.7-0.4-1.5-0.9-2.4l0.2-0.3L84.8,38.9L84.8,38.9z
		 M77.6,28.4H81v-9.9c0-2.2-0.6-3.3-1.7-3.3c-1.2,0-1.7,1.2-1.7,3.6V28.4L77.6,28.4z M88.9,48.3V2.8c-0.4-0.3-0.9-0.5-1.5-0.6V1.7
		h5.3v46.6c0.4,0.3,0.9,0.5,1.4,0.6v0.5h-6.7V49C88,48.8,88.5,48.6,88.9,48.3L88.9,48.3z M104.3,45.4c-1,3-2.3,4.4-4,4.4
		c-2.2,0-3.4-2.2-3.4-6.5V17.9c0-1.5,0.3-2.8,0.8-3.8c0.5-1,1.2-1.5,2.2-1.5c1.6,0,3.1,1.6,4.4,4.7V2.8c-0.4-0.3-0.9-0.5-1.4-0.6
		V1.7h5.2v46.6c0.2,0.2,0.7,0.4,1.5,0.6v0.5h-5.3V45.4L104.3,45.4z M104.3,44V18.9c-0.9-2.2-1.7-3.4-2.4-3.4c-0.8,0-1.1,0.5-1.1,1.5
		v27.8c0,1.4,0.4,2.1,1.3,2.1C102.6,47,103.4,46,104.3,44L104.3,44z"/>
	<path class="st0" d="M164.1,38.3l4.4-5.1l0.4,0.4c-0.5,1.2-0.7,3.3-0.7,6.2c0,3,0.1,4.9,0.3,5.8c0.2,0.8,0.7,1.2,1.5,1.2
		c1.5,0,2.2-2.3,2.2-6.8c0-2.6-0.2-4.7-0.7-6.5c-0.4-1.8-1.3-3.8-2.6-6c-1.4-2.5-2.3-4.3-2.8-5.4c-0.5-1.1-1-2.7-1.4-4.6
		c-0.4-1.9-0.6-3.9-0.6-5.9c0-6.8,2-10.2,5.9-10.2c4,0,6,3.8,6,11.3v1.9l-4.4,3.4l-0.3-0.4c0.4-1.5,0.7-3.2,0.7-5
		c0-2.6-0.1-4.7-0.3-6c-0.2-1.4-0.7-2.1-1.5-2.1c-1.3,0-1.9,2-1.9,6c0,3.6,0.2,6.1,0.7,7.6c0.5,1.5,1.5,3.6,2.9,6.2
		c1.9,3.3,3.1,6,3.7,8c0.5,2,0.8,4.3,0.8,6.9c0,7.1-2.1,10.6-6.3,10.6c-3.9,0-5.8-3.1-5.8-9.4V38.3L164.1,38.3z M186.7,49.5v-4.1
		c-0.7,1.9-1.4,3.1-1.9,3.6c-0.6,0.6-1.2,0.9-2,0.9c-2.2,0-3.3-2.2-3.3-6.5V36c0-2.3,0.2-4,0.7-5.2c0.5-1.2,1.4-2.3,2.7-3.3l3.8-2.9
		v-7.1c0-1.5-0.4-2.2-1.3-2.2c-1.2,0-1.8,1.3-1.8,3.9c0,1.3,0.2,2.4,0.6,3.2l-0.3,0.3l-4.1-2.5v-0.9c0-1.9,0.4-3.5,1.4-4.7
		c0.9-1.2,2.3-1.9,4.1-1.9c3.4,0,5.1,2.3,5.1,6.9v28.8c0.4,0.3,0.9,0.5,1.5,0.6v0.5H186.7L186.7,49.5z M186.7,27.5l-1.8,1.7
		c-1.1,1-1.6,2.5-1.6,4.7V44c0,1.8,0.4,2.8,1.3,2.8c0.6,0,1.1-0.5,1.5-1.6c0.4-1,0.7-1.9,0.7-2.6V27.5L186.7,27.5z M198.6,17.8
		c1-3.4,2.4-5.1,4.1-5.1c0.9,0,1.7,0.4,2.3,1.4c0.6,0.9,0.9,2.1,0.9,3.6v30.6c0.5,0.3,0.9,0.5,1.4,0.6v0.5h-6.6V49
		c0.6-0.2,1.1-0.4,1.4-0.6V18.1c0-1.4-0.3-2.1-0.9-2.1c-0.7,0-1.3,0.8-1.8,2.3c-0.5,1.6-0.8,3.6-0.8,6v24c0.4,0.3,0.9,0.5,1.5,0.6
		v0.5h-6.7V49c0.6-0.2,1.1-0.4,1.4-0.6V14.2c-0.3-0.2-0.8-0.4-1.4-0.6V13h5.2V17.8L198.6,17.8z M210.5,48.3V15.9H209V13h1.4V9.2
		c0-2.8,0.4-4.9,1.2-6.1c0.8-1.2,2.1-1.8,4-1.8c3,0,4.5,1.4,4.6,4.1l-4,3.6l-0.2-0.4c0.6-1.1,0.9-2,0.9-2.7c0-1.3-0.5-2-1.6-2
		c-0.8,0-1.2,0.7-1.2,2.2v7h1.4v2.8h-1.4v32.4c0.4,0.3,0.9,0.5,1.4,0.6v0.5H209V49C209.6,48.8,210.1,48.6,210.5,48.3L210.5,48.3z
		 M229.6,20v22.5c0,4.8-1.8,7.2-5.4,7.2c-3.7,0-5.6-2.3-5.6-7V19.7c0-2,0.5-3.6,1.4-5c0.9-1.4,2.3-2,4.2-2c1.7,0,3,0.6,4,1.9
		C229.2,15.8,229.6,17.6,229.6,20L229.6,20z M225.9,17.9c0-1.8-0.6-2.7-1.7-2.7c-1.2,0-1.7,0.9-1.7,2.7v26.7c0,1.7,0.6,2.6,1.8,2.6
		c1.1,0,1.7-0.9,1.7-2.6V17.9L225.9,17.9z M233.9,48.3V14.2c-0.4-0.3-0.9-0.5-1.5-0.6V13h5.3v5.4c0.7-2.4,1.4-4,1.9-4.7
		c0.5-0.7,1.2-1.1,2-1.1c1,0,1.8,0.6,2.4,1.7c0.6,1.2,0.9,2.6,0.9,4.4v4.4l-4.2,3.9l-0.2-0.4c0.4-0.9,0.6-2.8,0.6-5.7
		c0-2.1-0.1-3.5-0.2-4.2c-0.1-0.7-0.4-1.1-0.8-1.1c-0.6,0-1.1,0.8-1.7,2.3c-0.5,1.5-0.8,3.3-0.8,5.4v24.9c0.4,0.3,0.9,0.5,1.4,0.6
		v0.5h-6.7V49C232.9,48.8,233.4,48.6,233.9,48.3L233.9,48.3z M255.2,45.4c-1,3-2.3,4.4-4,4.4c-2.2,0-3.3-2.2-3.3-6.5V17.9
		c0-1.5,0.3-2.8,0.8-3.8c0.5-1,1.2-1.5,2.2-1.5c1.6,0,3.1,1.6,4.4,4.7V2.8c-0.4-0.3-0.9-0.5-1.4-0.6V1.7h5.2v46.6
		c0.2,0.2,0.7,0.4,1.5,0.6v0.5h-5.3V45.4L255.2,45.4z M255.2,44V18.9c-0.9-2.2-1.7-3.4-2.4-3.4c-0.8,0-1.1,0.5-1.1,1.5v27.8
		c0,1.4,0.4,2.1,1.3,2.1C253.6,47,254.3,46,255.2,44L255.2,44z"/>
	<g>
		<path class="st2" d="M271.5,0c4.3,0,7.7,3.5,7.7,7.7c0,4.3-3.4,7.8-7.7,7.8c-4.3,0-7.7-3.4-7.7-7.8C263.8,3.5,267.2,0,271.5,0
			L271.5,0z M271.5,1.5c-3.2,0-5.8,2.8-5.8,6.2c0,3.5,2.6,6.2,5.9,6.2c3.3,0,5.9-2.7,5.9-6.2C277.4,4.3,274.8,1.5,271.5,1.5
			L271.5,1.5z M270.2,12.2h-1.8V3.6c0.7-0.1,1.4-0.2,2.8-0.2c1.5,0,2.4,0.2,3,0.7c0.5,0.4,0.8,1,0.8,1.9c0,1-0.7,1.8-1.7,2V8
			c0.8,0.1,1.2,0.8,1.4,2.1c0.2,1.3,0.3,1.9,0.5,2.1h-1.9c-0.2-0.3-0.3-1.1-0.5-2.2c-0.1-0.9-0.7-1.3-1.6-1.3h-0.8V12.2z M270.2,7.3
			h0.9c1.1,0,1.9-0.3,1.9-1.2c0-0.7-0.5-1.3-1.8-1.3c-0.4,0-0.8,0-1,0V7.3z"/>
	</g>
	<g>
		<rect x="0.1" y="68.7" class="st0" width="75.7" height="2.3"/>
		<rect x="184.7" y="68.7" class="st0" width="75.3" height="2.3"/>
	</g>
	<g>
		<path class="st3" d="M90.1,71.4c0.7,0.5,1.7,0.8,2.8,0.8c1.2,0,2.3-0.7,2.3-1.9c0-0.8-0.5-1.4-1.8-2c-1.5-0.8-2.6-1.8-2.6-3.3
			c0-2.4,2.1-3.9,4.6-3.9c1.4,0,2.3,0.3,2.8,0.6l-0.7,1.8c-0.4-0.2-1.3-0.6-2.3-0.6c-1.4,0-2.2,0.8-2.2,1.6c0,0.9,0.7,1.4,1.9,2
			c1.5,0.8,2.5,1.8,2.5,3.3c0,2.5-2.1,4.1-4.9,4.1c-1.5,0-2.8-0.4-3.3-0.9L90.1,71.4z"/>
		<path class="st3" d="M98.8,73.9l1.7-9.1h2.2l-1.7,9.1H98.8z M100.9,62.3c0-0.8,0.6-1.3,1.3-1.3c0.7,0,1.2,0.5,1.2,1.2
			c0,0.8-0.6,1.3-1.4,1.3C101.3,63.5,100.9,63,100.9,62.3z"/>
		<path class="st3" d="M103.5,73.9l1.2-6.3c0.2-1.1,0.4-2,0.5-2.8h1.9l-0.2,1.6h0c0.8-1.2,2-1.8,3.3-1.8c1.3,0,2.3,0.8,2.3,2.5
			c0,0.4-0.1,1-0.2,1.5l-1,5.3h-2.2l1-5.1c0.1-0.3,0.1-0.7,0.1-1.1c0-0.8-0.3-1.3-1.1-1.3c-1,0-2.3,1.2-2.7,3.3l-0.8,4.2H103.5z"/>
		<path class="st3" d="M120.3,73.6c-0.5,0.3-1.5,0.5-2.6,0.5c-2.3,0-3.7-1.5-3.7-3.6c0-3.2,2.4-5.9,5.8-5.9c0.8,0,1.5,0.2,1.9,0.3
			l-0.6,1.7c-0.3-0.2-0.8-0.3-1.4-0.3c-2.1,0-3.4,1.9-3.4,3.8c0,1.4,0.8,2.1,2,2.1c0.8,0,1.5-0.2,1.9-0.4L120.3,73.6z"/>
		<path class="st3" d="M128.7,73.4c-0.9,0.5-2.1,0.7-3.2,0.7c-2.5,0-3.7-1.6-3.7-3.8c0-2.8,2-5.7,5.2-5.7c1.8,0,2.9,1,2.9,2.6
			c0,2.3-2.5,3.1-6,3c0,0.3,0,0.9,0.2,1.3c0.4,0.6,1,0.9,1.9,0.9c1,0,1.9-0.3,2.5-0.6L128.7,73.4z M126.7,66.2
			c-1.4,0-2.3,1.2-2.5,2.3c2.2,0,3.7-0.3,3.7-1.4C127.8,66.6,127.4,66.2,126.7,66.2z"/>
		<path class="st3" d="M138.9,63.9L138.9,63.9l-2.3,1l-0.1-1.7l3.1-1.4h1.8l-2.3,12.2H137L138.9,63.9z"/>
		<path class="st3" d="M144.5,72.3c0.3,0,0.7,0,1.1,0c0.8-0.1,1.7-0.4,2.5-1c0.9-0.6,1.6-1.5,2.1-2.7h0c-0.7,0.7-1.6,1.1-2.5,1.1
			c-1.9,0-3.1-1.4-3.1-3.2c0-2.6,2.1-4.9,4.8-4.9c2.5,0,3.6,1.8,3.6,4.1c0,2.9-1.6,5.5-3.1,6.8c-1.2,0.9-2.7,1.5-4.2,1.6
			c-0.6,0.1-1,0.1-1.4,0L144.5,72.3z M146.8,66.2c0,1.1,0.6,1.8,1.6,1.8c0.8,0,1.6-0.5,2-1.1c0.1-0.1,0.2-0.3,0.3-0.6
			c0.1-0.3,0.1-0.7,0.1-1.1c0-1.1-0.5-2-1.7-2C147.8,63.3,146.8,64.7,146.8,66.2z"/>
		<path class="st3" d="M158.3,63.9L158.3,63.9l-2.3,1l-0.1-1.7l3.1-1.4h1.8l-2.3,12.2h-2.1L158.3,63.9z"/>
		<path class="st3" d="M171.9,63.6h-4.2l-0.7,2.4c0.2,0,0.4,0,0.6,0c0.6,0,1.6,0.2,2.3,0.7c0.9,0.6,1.4,1.6,1.4,2.7
			c0,3-2.5,4.7-5.3,4.7c-1.3,0-2.5-0.4-2.9-0.7l0.6-1.7c0.5,0.3,1.4,0.6,2.4,0.6c1.5,0,3-1,3-2.5c0-1.2-0.7-2.1-3-2.1
			c-0.6,0-1,0-1.4,0.1l1.7-6h6L171.9,63.6z"/>
	</g>
</g>
</svg>
